<?xml version="1.0" encoding="UTF-8" standalone="no"?>
<svg
   xmlns:dc="http://purl.org/dc/elements/1.1/"
   xmlns:cc="http://creativecommons.org/ns#"
   xmlns:rdf="http://www.w3.org/1999/02/22-rdf-syntax-ns#"
   xmlns:svg="http://www.w3.org/2000/svg"
   xmlns="http://www.w3.org/2000/svg"
   xmlns:sodipodi="http://sodipodi.sourceforge.net/DTD/sodipodi-0.dtd"
   xmlns:inkscape="http://www.inkscape.org/namespaces/inkscape"
   width="350mm"
   height="350mm"
   viewBox="0 0 350 350"
   version="1.1"
   id="svg8"
   inkscape:version="1.0.1 (1.0.1+r73)"
   sodipodi:docname="magnifying_glass.svg">
  <defs
     id="defs2">
    <inkscape:path-effect
       effect="powerclip"
       id="path-effect24"
       is_visible="true"
       lpeversion="1"
       inverse="true"
       flatten="false"
       hide_clip="false"
       message="Utilise la règle de remplissage « fill-rule: evenodd » de la boîte de dialogue &lt;b&gt;Fond et contour&lt;/b&gt; en l'absence de résultat de mise à plat après une conversion en chemin." />
    <clipPath
       clipPathUnits="userSpaceOnUse"
       id="clipPath20">
      <circle
         style="display:none;fill:#ff0000;stroke-width:7.46969"
         id="circle22"
         cx="175"
         cy="125"
         r="75"
         d="m 250,125 a 75,75 0 0 1 -75,75 75,75 0 0 1 -75,-75 75,75 0 0 1 75,-75 75,75 0 0 1 75,75 z" />
      <path
         id="lpe_path-effect24"
         style="fill:#ff0000;stroke-width:7.46969"
         class="powerclip"
         d="M 150,105 H 329.99982 V 329.99986 H 150 Z m 100,20 a 75,75 0 0 0 -75,-75 75,75 0 0 0 -75,75 75,75 0 0 0 75,75 75,75 0 0 0 75,-75 z" />
    </clipPath>
  </defs>
  <sodipodi:namedview
     id="base"
     pagecolor="#ffffff"
     bordercolor="#666666"
     borderopacity="1.0"
     inkscape:pageopacity="0.0"
     inkscape:pageshadow="2"
     inkscape:zoom="0.75268074"
     inkscape:cx="496.02268"
     inkscape:cy="693.18979"
     inkscape:document-units="mm"
     inkscape:current-layer="layer1"
     inkscape:document-rotation="0"
     showgrid="false"
     inkscape:window-width="1440"
     inkscape:window-height="876"
     inkscape:window-x="1360"
     inkscape:window-y="0"
     inkscape:window-maximized="1" />
  <metadata
     id="metadata5">
    <rdf:RDF>
      <cc:Work
         rdf:about="">
        <dc:format>image/svg+xml</dc:format>
        <dc:type
           rdf:resource="http://purl.org/dc/dcmitype/StillImage" />
        <dc:title />
      </cc:Work>
    </rdf:RDF>
  </metadata>
  <g
     inkscape:label="Calque 1"
     inkscape:groupmode="layer"
     id="layer1">
    <path
       id="path58"
       style="fill:#ffffff;stroke-width:15.0711"
       d="M 661.1582 94.488281 A 377.95276 377.95276 0 0 0 283.46484 472.44141 A 377.95276 377.95276 0 0 0 661.41797 850.39453 A 377.95276 377.95276 0 0 0 1039.3691 472.44141 A 377.95276 377.95276 0 0 0 661.41797 94.488281 A 377.95276 377.95276 0 0 0 661.1582 94.488281 z M 660.70312 188.97656 A 283.46457 283.46457 0 0 1 661.41797 188.97656 A 283.46457 283.46457 0 0 1 662.83398 188.98047 A 283.46457 283.46457 0 0 1 664.24805 188.99023 A 283.46457 283.46457 0 0 1 665.66406 189.00781 A 283.46457 283.46457 0 0 1 667.08008 189.0332 A 283.46457 283.46457 0 0 1 668.49609 189.06445 A 283.46457 283.46457 0 0 1 669.91016 189.10352 A 283.46457 283.46457 0 0 1 671.32617 189.15039 A 283.46457 283.46457 0 0 1 672.74023 189.20312 A 283.46457 283.46457 0 0 1 674.1543 189.26367 A 283.46457 283.46457 0 0 1 675.56836 189.33008 A 283.46457 283.46457 0 0 1 676.98242 189.4043 A 283.46457 283.46457 0 0 1 678.39648 189.48438 A 283.46457 283.46457 0 0 1 679.80859 189.57422 A 283.46457 283.46457 0 0 1 681.22266 189.66992 A 283.46457 283.46457 0 0 1 682.63477 189.77148 A 283.46457 283.46457 0 0 1 684.04492 189.88086 A 283.46457 283.46457 0 0 1 685.45703 189.99805 A 283.46457 283.46457 0 0 1 686.86719 190.12109 A 283.46457 283.46457 0 0 1 688.27734 190.25195 A 283.46457 283.46457 0 0 1 689.68555 190.38867 A 283.46457 283.46457 0 0 1 691.09375 190.5332 A 283.46457 283.46457 0 0 1 692.50195 190.68555 A 283.46457 283.46457 0 0 1 693.9082 190.84375 A 283.46457 283.46457 0 0 1 695.31445 191.00977 A 283.46457 283.46457 0 0 1 696.71875 191.18359 A 283.46457 283.46457 0 0 1 698.12305 191.36328 A 283.46457 283.46457 0 0 1 699.52734 191.55078 A 283.46457 283.46457 0 0 1 700.92969 191.74414 A 283.46457 283.46457 0 0 1 702.33203 191.94531 A 283.46457 283.46457 0 0 1 703.73242 192.15234 A 283.46457 283.46457 0 0 1 705.13086 192.36719 A 283.46457 283.46457 0 0 1 706.5293 192.58984 A 283.46457 283.46457 0 0 1 707.92578 192.81836 A 283.46457 283.46457 0 0 1 709.32227 193.05273 A 283.46457 283.46457 0 0 1 710.7168 193.29688 A 283.46457 283.46457 0 0 1 712.11133 193.54688 A 283.46457 283.46457 0 0 1 713.50391 193.80273 A 283.46457 283.46457 0 0 1 714.89453 194.06641 A 283.46457 283.46457 0 0 1 716.2832 194.33789 A 283.46457 283.46457 0 0 1 717.67188 194.61523 A 283.46457 283.46457 0 0 1 719.05859 194.89844 A 283.46457 283.46457 0 0 1 720.44531 195.18945 A 283.46457 283.46457 0 0 1 721.82812 195.48828 A 283.46457 283.46457 0 0 1 723.21094 195.79297 A 283.46457 283.46457 0 0 1 724.5918 196.10547 A 283.46457 283.46457 0 0 1 725.9707 196.42383 A 283.46457 283.46457 0 0 1 727.34961 196.75 A 283.46457 283.46457 0 0 1 728.72461 197.08398 A 283.46457 283.46457 0 0 1 730.09961 197.42383 A 283.46457 283.46457 0 0 1 731.47266 197.76953 A 283.46457 283.46457 0 0 1 732.84375 198.12305 A 283.46457 283.46457 0 0 1 734.21289 198.48242 A 283.46457 283.46457 0 0 1 735.58008 198.84961 A 283.46457 283.46457 0 0 1 736.94531 199.22461 A 283.46457 283.46457 0 0 1 738.30859 199.60352 A 283.46457 283.46457 0 0 1 739.66992 199.99219 A 283.46457 283.46457 0 0 1 741.03125 200.38672 A 283.46457 283.46457 0 0 1 742.38867 200.78711 A 283.46457 283.46457 0 0 1 743.74414 201.19531 A 283.46457 283.46457 0 0 1 745.09766 201.60938 A 283.46457 283.46457 0 0 1 746.44922 202.03125 A 283.46457 283.46457 0 0 1 747.79883 202.45898 A 283.46457 283.46457 0 0 1 749.14648 202.89258 A 283.46457 283.46457 0 0 1 750.49219 203.33594 A 283.46457 283.46457 0 0 1 751.83398 203.7832 A 283.46457 283.46457 0 0 1 753.17578 204.23828 A 283.46457 283.46457 0 0 1 754.51367 204.69922 A 283.46457 283.46457 0 0 1 755.84961 205.16797 A 283.46457 283.46457 0 0 1 757.18359 205.64258 A 283.46457 283.46457 0 0 1 758.51367 206.125 A 283.46457 283.46457 0 0 1 759.84375 206.61328 A 283.46457 283.46457 0 0 1 761.16992 207.10742 A 283.46457 283.46457 0 0 1 762.49414 207.60938 A 283.46457 283.46457 0 0 1 763.81445 208.11719 A 283.46457 283.46457 0 0 1 765.13477 208.63281 A 283.46457 283.46457 0 0 1 766.45117 209.1543 A 283.46457 283.46457 0 0 1 767.76367 209.68164 A 283.46457 283.46457 0 0 1 769.07422 210.2168 A 283.46457 283.46457 0 0 1 770.38281 210.75781 A 283.46457 283.46457 0 0 1 771.68945 211.30469 A 283.46457 283.46457 0 0 1 772.99219 211.85742 A 283.46457 283.46457 0 0 1 774.29102 212.41797 A 283.46457 283.46457 0 0 1 775.58984 212.98633 A 283.46457 283.46457 0 0 1 776.88281 213.55859 A 283.46457 283.46457 0 0 1 778.17578 214.13867 A 283.46457 283.46457 0 0 1 779.46289 214.72656 A 283.46457 283.46457 0 0 1 780.75 215.31836 A 283.46457 283.46457 0 0 1 782.03125 215.91797 A 283.46457 283.46457 0 0 1 783.3125 216.52344 A 283.46457 283.46457 0 0 1 784.58789 217.13477 A 283.46457 283.46457 0 0 1 785.86133 217.75391 A 283.46457 283.46457 0 0 1 787.13281 218.37891 A 283.46457 283.46457 0 0 1 788.40039 219.00977 A 283.46457 283.46457 0 0 1 789.66406 219.64648 A 283.46457 283.46457 0 0 1 790.92578 220.29102 A 283.46457 283.46457 0 0 1 792.18359 220.93945 A 283.46457 283.46457 0 0 1 793.4375 221.5957 A 283.46457 283.46457 0 0 1 794.68945 222.25977 A 283.46457 283.46457 0 0 1 795.93555 222.92773 A 283.46457 283.46457 0 0 1 797.18164 223.60352 A 283.46457 283.46457 0 0 1 798.42188 224.2832 A 283.46457 283.46457 0 0 1 799.66016 224.9707 A 283.46457 283.46457 0 0 1 800.89453 225.66406 A 283.46457 283.46457 0 0 1 802.125 226.36523 A 283.46457 283.46457 0 0 1 803.35156 227.07031 A 283.46457 283.46457 0 0 1 804.57617 227.7832 A 283.46457 283.46457 0 0 1 805.79688 228.5 A 283.46457 283.46457 0 0 1 807.01172 229.22461 A 283.46457 283.46457 0 0 1 808.22461 229.95508 A 283.46457 283.46457 0 0 1 809.43555 230.69141 A 283.46457 283.46457 0 0 1 810.64062 231.43359 A 283.46457 283.46457 0 0 1 811.8418 232.18164 A 283.46457 283.46457 0 0 1 813.04102 232.93555 A 283.46457 283.46457 0 0 1 814.23438 233.69531 A 283.46457 283.46457 0 0 1 815.42578 234.46289 A 283.46457 283.46457 0 0 1 816.61133 235.23438 A 283.46457 283.46457 0 0 1 817.79492 236.01172 A 283.46457 283.46457 0 0 1 818.97266 236.79688 A 283.46457 283.46457 0 0 1 820.14844 237.58594 A 283.46457 283.46457 0 0 1 821.32031 238.38281 A 283.46457 283.46457 0 0 1 822.48633 239.18359 A 283.46457 283.46457 0 0 1 823.64844 239.99023 A 283.46457 283.46457 0 0 1 824.80859 240.80469 A 283.46457 283.46457 0 0 1 825.96289 241.62305 A 283.46457 283.46457 0 0 1 827.11328 242.44727 A 283.46457 283.46457 0 0 1 828.25977 243.2793 A 283.46457 283.46457 0 0 1 829.40234 244.11523 A 283.46457 283.46457 0 0 1 830.54102 244.95703 A 283.46457 283.46457 0 0 1 831.67578 245.80469 A 283.46457 283.46457 0 0 1 832.80469 246.65625 A 283.46457 283.46457 0 0 1 833.93164 247.51562 A 283.46457 283.46457 0 0 1 835.05273 248.38086 A 283.46457 283.46457 0 0 1 836.16797 249.25 A 283.46457 283.46457 0 0 1 837.28125 250.125 A 283.46457 283.46457 0 0 1 838.38867 251.00781 A 283.46457 283.46457 0 0 1 839.49414 251.89453 A 283.46457 283.46457 0 0 1 840.5918 252.78516 A 283.46457 283.46457 0 0 1 841.6875 253.68359 A 283.46457 283.46457 0 0 1 842.77734 254.58594 A 283.46457 283.46457 0 0 1 843.86328 255.49414 A 283.46457 283.46457 0 0 1 844.94531 256.4082 A 283.46457 283.46457 0 0 1 846.02148 257.32812 A 283.46457 283.46457 0 0 1 847.09375 258.25391 A 283.46457 283.46457 0 0 1 848.16016 259.18359 A 283.46457 283.46457 0 0 1 849.22461 260.11914 A 283.46457 283.46457 0 0 1 850.28125 261.05859 A 283.46457 283.46457 0 0 1 851.33594 262.00586 A 283.46457 283.46457 0 0 1 852.38477 262.95703 A 283.46457 283.46457 0 0 1 853.42773 263.91211 A 283.46457 283.46457 0 0 1 854.4668 264.875 A 283.46457 283.46457 0 0 1 855.50195 265.8418 A 283.46457 283.46457 0 0 1 856.53125 266.8125 A 283.46457 283.46457 0 0 1 857.55469 267.78906 A 283.46457 283.46457 0 0 1 858.57422 268.77148 A 283.46457 283.46457 0 0 1 859.58984 269.75977 A 283.46457 283.46457 0 0 1 860.59961 270.75195 A 283.46457 283.46457 0 0 1 861.60352 271.74805 A 283.46457 283.46457 0 0 1 862.60352 272.75195 A 283.46457 283.46457 0 0 1 863.59961 273.75781 A 283.46457 283.46457 0 0 1 864.58984 274.77148 A 283.46457 283.46457 0 0 1 865.57422 275.78711 A 283.46457 283.46457 0 0 1 866.55273 276.81055 A 283.46457 283.46457 0 0 1 867.52734 277.83789 A 283.46457 283.46457 0 0 1 868.49805 278.86914 A 283.46457 283.46457 0 0 1 869.46094 279.90625 A 283.46457 283.46457 0 0 1 870.41992 280.94727 A 283.46457 283.46457 0 0 1 871.375 281.99414 A 283.46457 283.46457 0 0 1 872.32227 283.04492 A 283.46457 283.46457 0 0 1 873.26562 284.09961 A 283.46457 283.46457 0 0 1 874.20312 285.16016 A 283.46457 283.46457 0 0 1 875.13672 286.22656 A 283.46457 283.46457 0 0 1 876.06445 287.29492 A 283.46457 283.46457 0 0 1 876.98633 288.36914 A 283.46457 283.46457 0 0 1 877.90234 289.44922 A 283.46457 283.46457 0 0 1 878.81445 290.53125 A 283.46457 283.46457 0 0 1 879.7207 291.62109 A 283.46457 283.46457 0 0 1 880.62109 292.71289 A 283.46457 283.46457 0 0 1 881.51562 293.81055 A 283.46457 283.46457 0 0 1 882.4043 294.91211 A 283.46457 283.46457 0 0 1 883.28906 296.01758 A 283.46457 283.46457 0 0 1 884.16602 297.12695 A 283.46457 283.46457 0 0 1 885.03906 298.24219 A 283.46457 283.46457 0 0 1 885.90625 299.36133 A 283.46457 283.46457 0 0 1 886.76953 300.48438 A 283.46457 283.46457 0 0 1 887.625 301.61328 A 283.46457 283.46457 0 0 1 888.47461 302.74414 A 283.46457 283.46457 0 0 1 889.32031 303.88086 A 283.46457 283.46457 0 0 1 890.1582 305.02148 A 283.46457 283.46457 0 0 1 890.99219 306.16602 A 283.46457 283.46457 0 0 1 891.82031 307.31445 A 283.46457 283.46457 0 0 1 892.64258 308.4668 A 283.46457 283.46457 0 0 1 893.45703 309.62305 A 283.46457 283.46457 0 0 1 894.26758 310.78516 A 283.46457 283.46457 0 0 1 895.07227 311.94922 A 283.46457 283.46457 0 0 1 895.87109 313.11914 A 283.46457 283.46457 0 0 1 896.66406 314.29102 A 283.46457 283.46457 0 0 1 897.45117 315.46875 A 283.46457 283.46457 0 0 1 898.23242 316.65039 A 283.46457 283.46457 0 0 1 899.00781 317.83398 A 283.46457 283.46457 0 0 1 899.77539 319.02344 A 283.46457 283.46457 0 0 1 900.53906 320.21484 A 283.46457 283.46457 0 0 1 901.29688 321.41211 A 283.46457 283.46457 0 0 1 902.04883 322.61133 A 283.46457 283.46457 0 0 1 902.79297 323.81445 A 283.46457 283.46457 0 0 1 903.5332 325.02148 A 283.46457 283.46457 0 0 1 904.26562 326.23438 A 283.46457 283.46457 0 0 1 904.99414 327.44727 A 283.46457 283.46457 0 0 1 905.71484 328.66602 A 283.46457 283.46457 0 0 1 906.42969 329.88867 A 283.46457 283.46457 0 0 1 907.13867 331.11328 A 283.46457 283.46457 0 0 1 907.8418 332.34375 A 283.46457 283.46457 0 0 1 908.53711 333.57617 A 283.46457 283.46457 0 0 1 909.22852 334.81055 A 283.46457 283.46457 0 0 1 909.91211 336.05078 A 283.46457 283.46457 0 0 1 910.58984 337.29297 A 283.46457 283.46457 0 0 1 911.26172 338.53906 A 283.46457 283.46457 0 0 1 911.92773 339.78906 A 283.46457 283.46457 0 0 1 912.58789 341.04297 A 283.46457 283.46457 0 0 1 913.24023 342.29883 A 283.46457 283.46457 0 0 1 913.88672 343.55859 A 283.46457 283.46457 0 0 1 914.52734 344.82031 A 283.46457 283.46457 0 0 1 915.16211 346.08594 A 283.46457 283.46457 0 0 1 915.79102 347.35547 A 283.46457 283.46457 0 0 1 916.41211 348.62695 A 283.46457 283.46457 0 0 1 917.02734 349.90234 A 283.46457 283.46457 0 0 1 917.63672 351.17969 A 283.46457 283.46457 0 0 1 918.23828 352.46094 A 283.46457 283.46457 0 0 1 918.83398 353.74609 A 283.46457 283.46457 0 0 1 919.42383 355.0332 A 283.46457 283.46457 0 0 1 920.00781 356.32227 A 283.46457 283.46457 0 0 1 920.58398 357.61523 A 283.46457 283.46457 0 0 1 921.1543 358.91211 A 283.46457 283.46457 0 0 1 921.71875 360.21094 A 283.46457 283.46457 0 0 1 922.27539 361.51172 A 283.46457 283.46457 0 0 1 922.82617 362.81641 A 283.46457 283.46457 0 0 1 923.37109 364.12305 A 283.46457 283.46457 0 0 1 923.9082 365.43164 A 283.46457 283.46457 0 0 1 924.43945 366.74414 A 283.46457 283.46457 0 0 1 924.96289 368.06055 A 283.46457 283.46457 0 0 1 925.48242 369.37695 A 283.46457 283.46457 0 0 1 925.99414 370.69727 A 283.46457 283.46457 0 0 1 926.49805 372.01953 A 283.46457 283.46457 0 0 1 926.99609 373.3457 A 283.46457 283.46457 0 0 1 927.48828 374.67383 A 283.46457 283.46457 0 0 1 927.97266 376.00391 A 283.46457 283.46457 0 0 1 928.45117 377.33594 A 283.46457 283.46457 0 0 1 928.92383 378.66992 A 283.46457 283.46457 0 0 1 929.38867 380.00781 A 283.46457 283.46457 0 0 1 929.8457 381.34766 A 283.46457 283.46457 0 0 1 930.29883 382.68945 A 283.46457 283.46457 0 0 1 930.74219 384.0332 A 283.46457 283.46457 0 0 1 931.18164 385.37891 A 283.46457 283.46457 0 0 1 931.61328 386.72852 A 283.46457 283.46457 0 0 1 932.03711 388.07812 A 283.46457 283.46457 0 0 1 932.45508 389.43164 A 283.46457 283.46457 0 0 1 932.86719 390.78516 A 283.46457 283.46457 0 0 1 933.27148 392.14258 A 283.46457 283.46457 0 0 1 933.66797 393.50195 A 283.46457 283.46457 0 0 1 934.05859 394.86133 A 283.46457 283.46457 0 0 1 934.44336 396.22461 A 283.46457 283.46457 0 0 1 934.82031 397.58984 A 283.46457 283.46457 0 0 1 935.19141 398.95508 A 283.46457 283.46457 0 0 1 935.55469 400.32422 A 283.46457 283.46457 0 0 1 935.91211 401.69336 A 283.46457 283.46457 0 0 1 936.26172 403.06641 A 283.46457 283.46457 0 0 1 936.60547 404.43945 A 283.46457 283.46457 0 0 1 936.94141 405.81445 A 283.46457 283.46457 0 0 1 937.26953 407.19141 A 283.46457 283.46457 0 0 1 937.5918 408.57031 A 283.46457 283.46457 0 0 1 937.9082 409.95117 A 283.46457 283.46457 0 0 1 938.2168 411.33203 A 283.46457 283.46457 0 0 1 938.51758 412.71484 A 283.46457 283.46457 0 0 1 938.8125 414.09961 A 283.46457 283.46457 0 0 1 939.10156 415.48633 A 283.46457 283.46457 0 0 1 939.38281 416.875 A 283.46457 283.46457 0 0 1 939.65625 418.26367 A 283.46457 283.46457 0 0 1 939.92383 419.6543 A 283.46457 283.46457 0 0 1 940.18359 421.04492 A 283.46457 283.46457 0 0 1 940.4375 422.4375 A 283.46457 283.46457 0 0 1 940.68359 423.83203 A 283.46457 283.46457 0 0 1 940.92188 425.22656 A 283.46457 283.46457 0 0 1 941.1543 426.625 A 283.46457 283.46457 0 0 1 941.38086 428.02148 A 283.46457 283.46457 0 0 1 941.59766 429.41992 A 283.46457 283.46457 0 0 1 941.81055 430.82031 A 283.46457 283.46457 0 0 1 942.01367 432.2207 A 283.46457 283.46457 0 0 1 942.21094 433.62305 A 283.46457 283.46457 0 0 1 942.40234 435.02539 A 283.46457 283.46457 0 0 1 942.58594 436.42969 A 283.46457 283.46457 0 0 1 942.76172 437.83398 A 283.46457 283.46457 0 0 1 942.93164 439.24023 A 283.46457 283.46457 0 0 1 943.09375 440.64648 A 283.46457 283.46457 0 0 1 943.24805 442.05469 A 283.46457 283.46457 0 0 1 943.39648 443.46289 A 283.46457 283.46457 0 0 1 943.53711 444.87109 A 283.46457 283.46457 0 0 1 943.67188 446.2793 A 283.46457 283.46457 0 0 1 943.79883 447.68945 A 283.46457 283.46457 0 0 1 943.91992 449.10156 A 283.46457 283.46457 0 0 1 944.0332 450.51172 A 283.46457 283.46457 0 0 1 944.13867 451.92383 A 283.46457 283.46457 0 0 1 944.23828 453.33594 A 283.46457 283.46457 0 0 1 944.33008 454.75 A 283.46457 283.46457 0 0 1 944.41406 456.16211 A 283.46457 283.46457 0 0 1 944.49219 457.57617 A 283.46457 283.46457 0 0 1 944.5625 458.99023 A 283.46457 283.46457 0 0 1 944.62695 460.4043 A 283.46457 283.46457 0 0 1 944.68359 461.81836 A 283.46457 283.46457 0 0 1 944.73242 463.23438 A 283.46457 283.46457 0 0 1 944.77539 464.64844 A 283.46457 283.46457 0 0 1 944.81055 466.06445 A 283.46457 283.46457 0 0 1 944.83789 467.48047 A 283.46457 283.46457 0 0 1 944.85938 468.89453 A 283.46457 283.46457 0 0 1 944.87305 470.31055 A 283.46457 283.46457 0 0 1 944.88086 471.72656 A 283.46457 283.46457 0 0 1 944.88281 472.44141 A 283.46457 283.46457 0 0 1 944.87891 473.85742 A 283.46457 283.46457 0 0 1 944.86719 475.27148 A 283.46457 283.46457 0 0 1 944.84961 476.6875 A 283.46457 283.46457 0 0 1 944.82617 478.10352 A 283.46457 283.46457 0 0 1 944.79297 479.51953 A 283.46457 283.46457 0 0 1 944.75391 480.93359 A 283.46457 283.46457 0 0 1 944.70898 482.34961 A 283.46457 283.46457 0 0 1 944.65625 483.76367 A 283.46457 283.46457 0 0 1 944.5957 485.17773 A 283.46457 283.46457 0 0 1 944.5293 486.5918 A 283.46457 283.46457 0 0 1 944.45508 488.00586 A 283.46457 283.46457 0 0 1 944.37305 489.41992 A 283.46457 283.46457 0 0 1 944.28516 490.83203 A 283.46457 283.46457 0 0 1 944.18945 492.24609 A 283.46457 283.46457 0 0 1 944.08594 493.6582 A 283.46457 283.46457 0 0 1 943.97656 495.06836 A 283.46457 283.46457 0 0 1 943.86133 496.48047 A 283.46457 283.46457 0 0 1 943.73633 497.89062 A 283.46457 283.46457 0 0 1 943.60742 499.30078 A 283.46457 283.46457 0 0 1 943.46875 500.70898 A 283.46457 283.46457 0 0 1 943.32422 502.11719 A 283.46457 283.46457 0 0 1 943.17188 503.52539 A 283.46457 283.46457 0 0 1 943.01367 504.93164 A 283.46457 283.46457 0 0 1 942.84766 506.33789 A 283.46457 283.46457 0 0 1 942.67578 507.74414 A 283.46457 283.46457 0 0 1 942.49609 509.14844 A 283.46457 283.46457 0 0 1 942.30859 510.55078 A 283.46457 283.46457 0 0 1 942.11523 511.95312 A 283.46457 283.46457 0 0 1 941.91406 513.35547 A 283.46457 283.46457 0 0 1 941.70508 514.75586 A 283.46457 283.46457 0 0 1 941.49023 516.1543 A 283.46457 283.46457 0 0 1 941.26953 517.55273 A 283.46457 283.46457 0 0 1 941.04102 518.94922 A 283.46457 283.46457 0 0 1 940.80469 520.3457 A 283.46457 283.46457 0 0 1 940.5625 521.74023 A 283.46457 283.46457 0 0 1 940.3125 523.13477 A 283.46457 283.46457 0 0 1 940.05469 524.52734 A 283.46457 283.46457 0 0 1 939.79102 525.91797 A 283.46457 283.46457 0 0 1 939.52148 527.30664 A 283.46457 283.46457 0 0 1 939.24414 528.69531 A 283.46457 283.46457 0 0 1 938.95898 530.08203 A 283.46457 283.46457 0 0 1 938.66797 531.46875 A 283.46457 283.46457 0 0 1 938.36914 532.85156 A 283.46457 283.46457 0 0 1 938.06445 534.23438 A 283.46457 283.46457 0 0 1 937.75195 535.61523 A 283.46457 283.46457 0 0 1 937.43359 536.99414 A 283.46457 283.46457 0 0 1 937.10742 538.37305 A 283.46457 283.46457 0 0 1 936.77539 539.74805 A 283.46457 283.46457 0 0 1 936.43555 541.12305 A 283.46457 283.46457 0 0 1 936.08984 542.49609 A 283.46457 283.46457 0 0 1 935.73633 543.86719 A 283.46457 283.46457 0 0 1 935.375 545.23633 A 283.46457 283.46457 0 0 1 935.00781 546.60352 A 283.46457 283.46457 0 0 1 934.63477 547.96875 A 283.46457 283.46457 0 0 1 934.25391 549.33203 A 283.46457 283.46457 0 0 1 933.86719 550.69336 A 283.46457 283.46457 0 0 1 933.47266 552.05469 A 283.46457 283.46457 0 0 1 933.07227 553.41211 A 283.46457 283.46457 0 0 1 932.66406 554.76758 A 283.46457 283.46457 0 0 1 932.24805 556.12109 A 283.46457 283.46457 0 0 1 931.82812 557.47266 A 283.46457 283.46457 0 0 1 931.40039 558.82227 A 283.46457 283.46457 0 0 1 930.96484 560.16992 A 283.46457 283.46457 0 0 1 930.52344 561.51562 A 283.46457 283.46457 0 0 1 930.07422 562.85742 A 283.46457 283.46457 0 0 1 929.61914 564.19922 A 283.46457 283.46457 0 0 1 929.1582 565.53711 A 283.46457 283.46457 0 0 1 928.68945 566.87305 A 283.46457 283.46457 0 0 1 928.21484 568.20703 A 283.46457 283.46457 0 0 1 927.73438 569.53711 A 283.46457 283.46457 0 0 1 927.24609 570.86719 A 283.46457 283.46457 0 0 1 926.75 572.19336 A 283.46457 283.46457 0 0 1 926.24805 573.51758 A 283.46457 283.46457 0 0 1 925.74023 574.83789 A 283.46457 283.46457 0 0 1 925.22656 576.1582 A 283.46457 283.46457 0 0 1 924.70508 577.47461 A 283.46457 283.46457 0 0 1 924.17773 578.78711 A 283.46457 283.46457 0 0 1 923.64258 580.09961 A 283.46457 283.46457 0 0 1 923.10156 581.40625 A 283.46457 283.46457 0 0 1 922.55469 582.71289 A 283.46457 283.46457 0 0 1 922 584.01562 A 283.46457 283.46457 0 0 1 921.43945 585.31641 A 283.46457 283.46457 0 0 1 920.87305 586.61328 A 283.46457 283.46457 0 0 1 920.29883 587.9082 A 283.46457 283.46457 0 0 1 919.71875 589.19922 A 283.46457 283.46457 0 0 1 919.13281 590.48828 A 283.46457 283.46457 0 0 1 918.53906 591.77344 A 283.46457 283.46457 0 0 1 917.94141 593.05664 A 283.46457 283.46457 0 0 1 917.33594 594.33594 A 283.46457 283.46457 0 0 1 916.72266 595.61133 A 283.46457 283.46457 0 0 1 916.10547 596.88672 A 283.46457 283.46457 0 0 1 915.48047 598.15625 A 283.46457 283.46457 0 0 1 914.84961 599.42383 A 283.46457 283.46457 0 0 1 914.21094 600.6875 A 283.46457 283.46457 0 0 1 913.56836 601.94922 A 283.46457 283.46457 0 0 1 912.91797 603.20703 A 283.46457 283.46457 0 0 1 912.26172 604.46094 A 283.46457 283.46457 0 0 1 911.59961 605.71289 A 283.46457 283.46457 0 0 1 910.92969 606.96094 A 283.46457 283.46457 0 0 1 910.25586 608.20508 A 283.46457 283.46457 0 0 1 909.57422 609.44531 A 283.46457 283.46457 0 0 1 908.88672 610.68359 A 283.46457 283.46457 0 0 1 908.19336 611.91797 A 283.46457 283.46457 0 0 1 907.49414 613.14844 A 283.46457 283.46457 0 0 1 906.78711 614.375 A 283.46457 283.46457 0 0 1 906.07617 615.59961 A 283.46457 283.46457 0 0 1 905.35742 616.82031 A 283.46457 283.46457 0 0 1 904.63281 618.03711 A 283.46457 283.46457 0 0 1 903.9043 619.25 A 283.46457 283.46457 0 0 1 903.16797 620.45898 A 283.46457 283.46457 0 0 1 902.42578 621.66406 A 283.46457 283.46457 0 0 1 901.67578 622.86523 A 283.46457 283.46457 0 0 1 900.92188 624.06445 A 283.46457 283.46457 0 0 1 900.16211 625.25781 A 283.46457 283.46457 0 0 1 899.39648 626.44922 A 283.46457 283.46457 0 0 1 898.62305 627.63477 A 283.46457 283.46457 0 0 1 897.8457 628.81836 A 283.46457 283.46457 0 0 1 897.0625 629.99609 A 283.46457 283.46457 0 0 1 896.27148 631.17188 A 283.46457 283.46457 0 0 1 895.47656 632.34375 A 283.46457 283.46457 0 0 1 894.67383 633.50977 A 283.46457 283.46457 0 0 1 893.86719 634.67383 A 283.46457 283.46457 0 0 1 893.05469 635.83203 A 283.46457 283.46457 0 0 1 892.23438 636.98633 A 283.46457 283.46457 0 0 1 891.41016 638.13672 A 283.46457 283.46457 0 0 1 890.58008 639.28516 A 283.46457 283.46457 0 0 1 889.74414 640.42578 A 283.46457 283.46457 0 0 1 888.90234 641.56445 A 283.46457 283.46457 0 0 1 888.05469 642.69922 A 283.46457 283.46457 0 0 1 887.20117 643.82812 A 283.46457 283.46457 0 0 1 886.3418 644.95508 A 283.46457 283.46457 0 0 1 885.47852 646.07617 A 283.46457 283.46457 0 0 1 884.60742 647.19336 A 283.46457 283.46457 0 0 1 883.73242 648.30469 A 283.46457 283.46457 0 0 1 882.85156 649.41406 A 283.46457 283.46457 0 0 1 881.96484 650.51758 A 283.46457 283.46457 0 0 1 881.07227 651.61719 A 283.46457 283.46457 0 0 1 880.17578 652.71094 A 283.46457 283.46457 0 0 1 879.27148 653.80078 A 283.46457 283.46457 0 0 1 878.36328 654.88672 A 283.46457 283.46457 0 0 1 877.44922 655.96875 A 283.46457 283.46457 0 0 1 876.5293 657.04492 A 283.46457 283.46457 0 0 1 875.60547 658.11719 A 283.46457 283.46457 0 0 1 874.67578 659.18555 A 283.46457 283.46457 0 0 1 873.74023 660.24805 A 283.46457 283.46457 0 0 1 872.79883 661.30469 A 283.46457 283.46457 0 0 1 871.85352 662.35938 A 283.46457 283.46457 0 0 1 870.90234 663.4082 A 283.46457 283.46457 0 0 1 869.94531 664.45117 A 283.46457 283.46457 0 0 1 868.98438 665.49023 A 283.46457 283.46457 0 0 1 868.01758 666.52539 A 283.46457 283.46457 0 0 1 867.04492 667.55469 A 283.46457 283.46457 0 0 1 866.06836 668.57812 A 283.46457 283.46457 0 0 1 865.08594 669.59766 A 283.46457 283.46457 0 0 1 864.09961 670.61328 A 283.46457 283.46457 0 0 1 863.10742 671.62305 A 283.46457 283.46457 0 0 1 862.10938 672.62891 A 283.46457 283.46457 0 0 1 861.10742 673.62695 A 283.46457 283.46457 0 0 1 860.09961 674.62305 A 283.46457 283.46457 0 0 1 859.08789 675.61328 A 283.46457 283.46457 0 0 1 858.07031 676.59766 A 283.46457 283.46457 0 0 1 857.04883 677.57617 A 283.46457 283.46457 0 0 1 856.02148 678.55078 A 283.46457 283.46457 0 0 1 854.99023 679.52148 A 283.46457 283.46457 0 0 1 853.95312 680.48438 A 283.46457 283.46457 0 0 1 852.91211 681.44336 A 283.46457 283.46457 0 0 1 851.86523 682.39844 A 283.46457 283.46457 0 0 1 850.81445 683.3457 A 283.46457 283.46457 0 0 1 849.75781 684.28906 A 283.46457 283.46457 0 0 1 848.69727 685.22852 A 283.46457 283.46457 0 0 1 847.63281 686.16016 A 283.46457 283.46457 0 0 1 846.5625 687.08789 A 283.46457 283.46457 0 0 1 845.48828 688.00977 A 283.46457 283.46457 0 0 1 844.41016 688.92578 A 283.46457 283.46457 0 0 1 843.32617 689.83789 A 283.46457 283.46457 0 0 1 842.23828 690.74414 A 283.46457 283.46457 0 0 1 841.14453 691.64453 A 283.46457 283.46457 0 0 1 840.04883 692.53906 A 283.46457 283.46457 0 0 1 838.94727 693.42773 A 283.46457 283.46457 0 0 1 837.8418 694.3125 A 283.46457 283.46457 0 0 1 836.73047 695.19141 A 283.46457 283.46457 0 0 1 835.61523 696.0625 A 283.46457 283.46457 0 0 1 834.49609 696.92969 A 283.46457 283.46457 0 0 1 833.37305 697.79297 A 283.46457 283.46457 0 0 1 832.24609 698.64844 A 283.46457 283.46457 0 0 1 831.11328 699.49805 A 283.46457 283.46457 0 0 1 829.97852 700.34375 A 283.46457 283.46457 0 0 1 828.83789 701.18164 A 283.46457 283.46457 0 0 1 827.69336 702.01562 A 283.46457 283.46457 0 0 1 826.54492 702.84375 A 283.46457 283.46457 0 0 1 825.39062 703.66602 A 283.46457 283.46457 0 0 1 824.23438 704.48047 A 283.46457 283.46457 0 0 1 823.07422 705.29102 A 283.46457 283.46457 0 0 1 821.9082 706.0957 A 283.46457 283.46457 0 0 1 820.74023 706.89453 A 283.46457 283.46457 0 0 1 819.56641 707.6875 A 283.46457 283.46457 0 0 1 818.39062 708.47461 A 283.46457 283.46457 0 0 1 817.20898 709.25586 A 283.46457 283.46457 0 0 1 816.02344 710.03125 A 283.46457 283.46457 0 0 1 814.83594 710.80078 A 283.46457 283.46457 0 0 1 813.64258 711.5625 A 283.46457 283.46457 0 0 1 812.44727 712.32031 A 283.46457 283.46457 0 0 1 811.24609 713.07227 A 283.46457 283.46457 0 0 1 810.04297 713.81641 A 283.46457 283.46457 0 0 1 808.83594 714.55664 A 283.46457 283.46457 0 0 1 807.625 715.28906 A 283.46457 283.46457 0 0 1 806.41016 716.01758 A 283.46457 283.46457 0 0 1 805.19141 716.73828 A 283.46457 283.46457 0 0 1 803.9707 717.45312 A 283.46457 283.46457 0 0 1 802.74414 718.16211 A 283.46457 283.46457 0 0 1 801.51562 718.86523 A 283.46457 283.46457 0 0 1 800.2832 719.56055 A 283.46457 283.46457 0 0 1 799.04688 720.25195 A 283.46457 283.46457 0 0 1 797.80664 720.93555 A 283.46457 283.46457 0 0 1 796.56445 721.61523 A 283.46457 283.46457 0 0 1 795.31836 722.28711 A 283.46457 283.46457 0 0 1 794.06836 722.95117 A 283.46457 283.46457 0 0 1 792.81641 723.61133 A 283.46457 283.46457 0 0 1 791.56055 724.26367 A 283.46457 283.46457 0 0 1 790.30078 724.91211 A 283.46457 283.46457 0 0 1 789.03711 725.55273 A 283.46457 283.46457 0 0 1 787.77148 726.18555 A 283.46457 283.46457 0 0 1 786.50391 726.81445 A 283.46457 283.46457 0 0 1 785.23047 727.43555 A 283.46457 283.46457 0 0 1 783.95703 728.05078 A 283.46457 283.46457 0 0 1 782.67773 728.66016 A 283.46457 283.46457 0 0 1 781.39648 729.26172 A 283.46457 283.46457 0 0 1 780.11328 729.85742 A 283.46457 283.46457 0 0 1 778.82617 730.44727 A 283.46457 283.46457 0 0 1 777.53516 731.03125 A 283.46457 283.46457 0 0 1 776.24219 731.60742 A 283.46457 283.46457 0 0 1 774.94727 732.17773 A 283.46457 283.46457 0 0 1 773.64844 732.74219 A 283.46457 283.46457 0 0 1 772.3457 733.29883 A 283.46457 283.46457 0 0 1 771.04297 733.84961 A 283.46457 283.46457 0 0 1 769.73438 734.39453 A 283.46457 283.46457 0 0 1 768.42578 734.93164 A 283.46457 283.46457 0 0 1 767.11328 735.46289 A 283.46457 283.46457 0 0 1 765.79883 735.98828 A 283.46457 283.46457 0 0 1 764.48047 736.50586 A 283.46457 283.46457 0 0 1 763.16016 737.01758 A 283.46457 283.46457 0 0 1 761.83789 737.52148 A 283.46457 283.46457 0 0 1 760.51367 738.01953 A 283.46457 283.46457 0 0 1 759.18555 738.51172 A 283.46457 283.46457 0 0 1 757.85547 738.99609 A 283.46457 283.46457 0 0 1 756.52148 739.47461 A 283.46457 283.46457 0 0 1 755.1875 739.94727 A 283.46457 283.46457 0 0 1 753.84961 740.41211 A 283.46457 283.46457 0 0 1 752.51172 740.86914 A 283.46457 283.46457 0 0 1 751.16992 741.32227 A 283.46457 283.46457 0 0 1 749.82422 741.76562 A 283.46457 283.46457 0 0 1 748.47852 742.20508 A 283.46457 283.46457 0 0 1 747.13086 742.63672 A 283.46457 283.46457 0 0 1 745.7793 743.06055 A 283.46457 283.46457 0 0 1 744.42773 743.47852 A 283.46457 283.46457 0 0 1 743.07227 743.89062 A 283.46457 283.46457 0 0 1 741.71484 744.29492 A 283.46457 283.46457 0 0 1 740.35742 744.69141 A 283.46457 283.46457 0 0 1 738.99609 745.08398 A 283.46457 283.46457 0 0 1 737.63281 745.4668 A 283.46457 283.46457 0 0 1 736.26953 745.84375 A 283.46457 283.46457 0 0 1 734.90234 746.21484 A 283.46457 283.46457 0 0 1 733.5332 746.57812 A 283.46457 283.46457 0 0 1 732.16406 746.93555 A 283.46457 283.46457 0 0 1 730.79297 747.28516 A 283.46457 283.46457 0 0 1 729.41797 747.62891 A 283.46457 283.46457 0 0 1 728.04297 747.96484 A 283.46457 283.46457 0 0 1 726.66602 748.29297 A 283.46457 283.46457 0 0 1 725.28711 748.61523 A 283.46457 283.46457 0 0 1 723.9082 748.93164 A 283.46457 283.46457 0 0 1 722.52539 749.24023 A 283.46457 283.46457 0 0 1 721.14258 749.54297 A 283.46457 283.46457 0 0 1 719.75781 749.83789 A 283.46457 283.46457 0 0 1 718.37109 750.125 A 283.46457 283.46457 0 0 1 716.98438 750.40625 A 283.46457 283.46457 0 0 1 715.5957 750.67969 A 283.46457 283.46457 0 0 1 714.20508 750.94727 A 283.46457 283.46457 0 0 1 712.8125 751.20703 A 283.46457 283.46457 0 0 1 711.41992 751.46094 A 283.46457 283.46457 0 0 1 710.02539 751.70703 A 283.46457 283.46457 0 0 1 708.63086 751.94531 A 283.46457 283.46457 0 0 1 707.23438 752.17773 A 283.46457 283.46457 0 0 1 705.83594 752.4043 A 283.46457 283.46457 0 0 1 704.4375 752.62109 A 283.46457 283.46457 0 0 1 703.03711 752.83398 A 283.46457 283.46457 0 0 1 701.63672 753.03711 A 283.46457 283.46457 0 0 1 700.23438 753.23438 A 283.46457 283.46457 0 0 1 698.83203 753.42578 A 283.46457 283.46457 0 0 1 697.42773 753.60938 A 283.46457 283.46457 0 0 1 696.02344 753.78516 A 283.46457 283.46457 0 0 1 694.61719 753.95508 A 283.46457 283.46457 0 0 1 693.21094 754.11719 A 283.46457 283.46457 0 0 1 691.80469 754.27148 A 283.46457 283.46457 0 0 1 690.39648 754.41992 A 283.46457 283.46457 0 0 1 688.98828 754.5625 A 283.46457 283.46457 0 0 1 687.57812 754.69531 A 283.46457 283.46457 0 0 1 686.16797 754.82227 A 283.46457 283.46457 0 0 1 684.75781 754.94336 A 283.46457 283.46457 0 0 1 683.3457 755.05664 A 283.46457 283.46457 0 0 1 681.93359 755.16211 A 283.46457 283.46457 0 0 1 680.52148 755.26172 A 283.46457 283.46457 0 0 1 679.10938 755.35352 A 283.46457 283.46457 0 0 1 677.69531 755.4375 A 283.46457 283.46457 0 0 1 676.2832 755.51562 A 283.46457 283.46457 0 0 1 674.86914 755.58594 A 283.46457 283.46457 0 0 1 673.45312 755.65039 A 283.46457 283.46457 0 0 1 672.03906 755.70703 A 283.46457 283.46457 0 0 1 670.625 755.75586 A 283.46457 283.46457 0 0 1 669.20898 755.79883 A 283.46457 283.46457 0 0 1 667.79492 755.83398 A 283.46457 283.46457 0 0 1 666.37891 755.86133 A 283.46457 283.46457 0 0 1 664.96289 755.88281 A 283.46457 283.46457 0 0 1 663.54688 755.89844 A 283.46457 283.46457 0 0 1 662.13086 755.9043 A 283.46457 283.46457 0 0 1 661.41797 755.90625 A 283.46457 283.46457 0 0 1 660.00195 755.90234 A 283.46457 283.46457 0 0 1 658.58594 755.89062 A 283.46457 283.46457 0 0 1 657.16992 755.87305 A 283.46457 283.46457 0 0 1 655.75391 755.84961 A 283.46457 283.46457 0 0 1 654.33984 755.81641 A 283.46457 283.46457 0 0 1 652.92383 755.77734 A 283.46457 283.46457 0 0 1 651.50977 755.73242 A 283.46457 283.46457 0 0 1 650.09375 755.67969 A 283.46457 283.46457 0 0 1 648.67969 755.61914 A 283.46457 283.46457 0 0 1 647.26562 755.55273 A 283.46457 283.46457 0 0 1 645.85156 755.47852 A 283.46457 283.46457 0 0 1 644.4375 755.39648 A 283.46457 283.46457 0 0 1 643.02539 755.30859 A 283.46457 283.46457 0 0 1 641.61328 755.21289 A 283.46457 283.46457 0 0 1 640.20117 755.11133 A 283.46457 283.46457 0 0 1 638.78906 755 A 283.46457 283.46457 0 0 1 637.37891 754.88477 A 283.46457 283.46457 0 0 1 635.96875 754.76172 A 283.46457 283.46457 0 0 1 634.55859 754.63086 A 283.46457 283.46457 0 0 1 633.14844 754.49219 A 283.46457 283.46457 0 0 1 631.74023 754.34766 A 283.46457 283.46457 0 0 1 630.33398 754.19531 A 283.46457 283.46457 0 0 1 628.92578 754.03711 A 283.46457 283.46457 0 0 1 627.51953 753.87109 A 283.46457 283.46457 0 0 1 626.11523 753.69922 A 283.46457 283.46457 0 0 1 624.71094 753.51953 A 283.46457 283.46457 0 0 1 623.30664 753.33203 A 283.46457 283.46457 0 0 1 621.9043 753.13867 A 283.46457 283.46457 0 0 1 620.50391 752.9375 A 283.46457 283.46457 0 0 1 619.10352 752.72852 A 283.46457 283.46457 0 0 1 617.70312 752.51367 A 283.46457 283.46457 0 0 1 616.30469 752.29297 A 283.46457 283.46457 0 0 1 614.9082 752.06445 A 283.46457 283.46457 0 0 1 613.51172 751.82812 A 283.46457 283.46457 0 0 1 612.11719 751.58594 A 283.46457 283.46457 0 0 1 610.72461 751.33594 A 283.46457 283.46457 0 0 1 609.33203 751.08008 A 283.46457 283.46457 0 0 1 607.94141 750.81641 A 283.46457 283.46457 0 0 1 606.55078 750.54492 A 283.46457 283.46457 0 0 1 605.16211 750.26758 A 283.46457 283.46457 0 0 1 603.77539 749.98242 A 283.46457 283.46457 0 0 1 602.39062 749.69141 A 283.46457 283.46457 0 0 1 601.00586 749.39258 A 283.46457 283.46457 0 0 1 599.62305 749.08789 A 283.46457 283.46457 0 0 1 598.24219 748.77539 A 283.46457 283.46457 0 0 1 596.86328 748.45703 A 283.46457 283.46457 0 0 1 595.48633 748.13086 A 283.46457 283.46457 0 0 1 594.10938 747.79883 A 283.46457 283.46457 0 0 1 592.73438 747.45898 A 283.46457 283.46457 0 0 1 591.36328 747.11328 A 283.46457 283.46457 0 0 1 589.99219 746.75977 A 283.46457 283.46457 0 0 1 588.62305 746.39844 A 283.46457 283.46457 0 0 1 587.25586 746.03125 A 283.46457 283.46457 0 0 1 585.88867 745.6582 A 283.46457 283.46457 0 0 1 584.52539 745.27734 A 283.46457 283.46457 0 0 1 583.16406 744.89062 A 283.46457 283.46457 0 0 1 581.80469 744.49609 A 283.46457 283.46457 0 0 1 580.44727 744.0957 A 283.46457 283.46457 0 0 1 579.08984 743.6875 A 283.46457 283.46457 0 0 1 577.73633 743.27344 A 283.46457 283.46457 0 0 1 576.38477 742.85156 A 283.46457 283.46457 0 0 1 575.03516 742.42383 A 283.46457 283.46457 0 0 1 573.68945 741.98828 A 283.46457 283.46457 0 0 1 572.34375 741.54688 A 283.46457 283.46457 0 0 1 571 741.09766 A 283.46457 283.46457 0 0 1 569.66016 740.64453 A 283.46457 283.46457 0 0 1 568.32227 740.18164 A 283.46457 283.46457 0 0 1 566.98438 739.71289 A 283.46457 283.46457 0 0 1 565.65234 739.23828 A 283.46457 283.46457 0 0 1 564.32031 738.75781 A 283.46457 283.46457 0 0 1 562.99219 738.26953 A 283.46457 283.46457 0 0 1 561.66406 737.77344 A 283.46457 283.46457 0 0 1 560.3418 737.27148 A 283.46457 283.46457 0 0 1 559.01953 736.76367 A 283.46457 283.46457 0 0 1 557.70117 736.25 A 283.46457 283.46457 0 0 1 556.38477 735.72852 A 283.46457 283.46457 0 0 1 555.07031 735.20117 A 283.46457 283.46457 0 0 1 553.75977 734.66602 A 283.46457 283.46457 0 0 1 552.45117 734.125 A 283.46457 283.46457 0 0 1 551.14648 733.57812 A 283.46457 283.46457 0 0 1 549.84375 733.02344 A 283.46457 283.46457 0 0 1 548.54297 732.46289 A 283.46457 283.46457 0 0 1 547.24609 731.89648 A 283.46457 283.46457 0 0 1 545.95117 731.32227 A 283.46457 283.46457 0 0 1 544.66016 730.74219 A 283.46457 283.46457 0 0 1 543.37109 730.15625 A 283.46457 283.46457 0 0 1 542.08594 729.5625 A 283.46457 283.46457 0 0 1 540.80273 728.96484 A 283.46457 283.46457 0 0 1 539.52344 728.35938 A 283.46457 283.46457 0 0 1 538.24609 727.74609 A 283.46457 283.46457 0 0 1 536.97266 727.12891 A 283.46457 283.46457 0 0 1 535.70117 726.50391 A 283.46457 283.46457 0 0 1 534.43555 725.87305 A 283.46457 283.46457 0 0 1 533.16992 725.23438 A 283.46457 283.46457 0 0 1 531.91016 724.5918 A 283.46457 283.46457 0 0 1 530.65234 723.94141 A 283.46457 283.46457 0 0 1 529.39648 723.28516 A 283.46457 283.46457 0 0 1 528.14648 722.62305 A 283.46457 283.46457 0 0 1 526.89844 721.95312 A 283.46457 283.46457 0 0 1 525.6543 721.2793 A 283.46457 283.46457 0 0 1 524.41211 720.59766 A 283.46457 283.46457 0 0 1 523.17578 719.91016 A 283.46457 283.46457 0 0 1 521.94141 719.2168 A 283.46457 283.46457 0 0 1 520.70898 718.51758 A 283.46457 283.46457 0 0 1 519.48242 717.81055 A 283.46457 283.46457 0 0 1 518.25977 717.09961 A 283.46457 283.46457 0 0 1 517.03906 716.38086 A 283.46457 283.46457 0 0 1 515.82227 715.6582 A 283.46457 283.46457 0 0 1 514.60938 714.92773 A 283.46457 283.46457 0 0 1 513.40039 714.19141 A 283.46457 283.46457 0 0 1 512.19531 713.44922 A 283.46457 283.46457 0 0 1 510.99219 712.70117 A 283.46457 283.46457 0 0 1 509.79492 711.94531 A 283.46457 283.46457 0 0 1 508.59961 711.18555 A 283.46457 283.46457 0 0 1 507.41016 710.41992 A 283.46457 283.46457 0 0 1 506.22266 709.64648 A 283.46457 283.46457 0 0 1 505.04102 708.86914 A 283.46457 283.46457 0 0 1 503.86133 708.08594 A 283.46457 283.46457 0 0 1 502.68555 707.29492 A 283.46457 283.46457 0 0 1 501.51562 706.5 A 283.46457 283.46457 0 0 1 500.34766 705.69727 A 283.46457 283.46457 0 0 1 499.18555 704.89062 A 283.46457 283.46457 0 0 1 498.02539 704.07812 A 283.46457 283.46457 0 0 1 496.87109 703.25781 A 283.46457 283.46457 0 0 1 495.7207 702.43359 A 283.46457 283.46457 0 0 1 494.57422 701.60352 A 283.46457 283.46457 0 0 1 493.43164 700.76758 A 283.46457 283.46457 0 0 1 492.29297 699.92578 A 283.46457 283.46457 0 0 1 491.16016 699.07812 A 283.46457 283.46457 0 0 1 490.0293 698.22461 A 283.46457 283.46457 0 0 1 488.9043 697.36523 A 283.46457 283.46457 0 0 1 487.7832 696.50195 A 283.46457 283.46457 0 0 1 486.66602 695.63086 A 283.46457 283.46457 0 0 1 485.55273 694.75586 A 283.46457 283.46457 0 0 1 484.44531 693.875 A 283.46457 283.46457 0 0 1 483.3418 692.98828 A 283.46457 283.46457 0 0 1 482.24219 692.0957 A 283.46457 283.46457 0 0 1 481.14648 691.19922 A 283.46457 283.46457 0 0 1 480.05664 690.29492 A 283.46457 283.46457 0 0 1 478.9707 689.38672 A 283.46457 283.46457 0 0 1 477.89062 688.47266 A 283.46457 283.46457 0 0 1 476.8125 687.55273 A 283.46457 283.46457 0 0 1 475.74023 686.62891 A 283.46457 283.46457 0 0 1 474.67383 685.69922 A 283.46457 283.46457 0 0 1 473.61133 684.76367 A 283.46457 283.46457 0 0 1 472.55273 683.82227 A 283.46457 283.46457 0 0 1 471.5 682.87695 A 283.46457 283.46457 0 0 1 470.45117 681.92578 A 283.46457 283.46457 0 0 1 469.40625 680.96875 A 283.46457 283.46457 0 0 1 468.36719 680.00781 A 283.46457 283.46457 0 0 1 467.33398 679.04102 A 283.46457 283.46457 0 0 1 466.30469 678.06836 A 283.46457 283.46457 0 0 1 465.2793 677.0918 A 283.46457 283.46457 0 0 1 464.25977 676.10938 A 283.46457 283.46457 0 0 1 463.24414 675.12305 A 283.46457 283.46457 0 0 1 462.23438 674.13086 A 283.46457 283.46457 0 0 1 461.23047 673.13281 A 283.46457 283.46457 0 0 1 460.23047 672.13086 A 283.46457 283.46457 0 0 1 459.23633 671.12305 A 283.46457 283.46457 0 0 1 458.24609 670.11133 A 283.46457 283.46457 0 0 1 457.26172 669.09375 A 283.46457 283.46457 0 0 1 456.28125 668.07227 A 283.46457 283.46457 0 0 1 455.30664 667.04492 A 283.46457 283.46457 0 0 1 454.33789 666.01367 A 283.46457 283.46457 0 0 1 453.37305 664.97656 A 283.46457 283.46457 0 0 1 452.41406 663.93555 A 283.46457 283.46457 0 0 1 451.46094 662.88867 A 283.46457 283.46457 0 0 1 450.51172 661.83789 A 283.46457 283.46457 0 0 1 449.56836 660.78125 A 283.46457 283.46457 0 0 1 448.63086 659.7207 A 283.46457 283.46457 0 0 1 447.69727 658.65625 A 283.46457 283.46457 0 0 1 446.76953 657.58594 A 283.46457 283.46457 0 0 1 445.84766 656.51172 A 283.46457 283.46457 0 0 1 444.93164 655.43359 A 283.46457 283.46457 0 0 1 444.02148 654.34961 A 283.46457 283.46457 0 0 1 443.11523 653.26172 A 283.46457 283.46457 0 0 1 442.21484 652.16992 A 283.46457 283.46457 0 0 1 441.32031 651.07227 A 283.46457 283.46457 0 0 1 440.42969 649.9707 A 283.46457 283.46457 0 0 1 439.54688 648.86523 A 283.46457 283.46457 0 0 1 438.66797 647.75391 A 283.46457 283.46457 0 0 1 437.79492 646.63867 A 283.46457 283.46457 0 0 1 436.92773 645.51953 A 283.46457 283.46457 0 0 1 436.06641 644.39648 A 283.46457 283.46457 0 0 1 435.20898 643.26953 A 283.46457 283.46457 0 0 1 434.35938 642.13672 A 283.46457 283.46457 0 0 1 433.51562 641.00195 A 283.46457 283.46457 0 0 1 432.67578 639.86133 A 283.46457 283.46457 0 0 1 431.8418 638.7168 A 283.46457 283.46457 0 0 1 431.01562 637.56836 A 283.46457 283.46457 0 0 1 430.19336 636.41406 A 283.46457 283.46457 0 0 1 429.37695 635.25781 A 283.46457 283.46457 0 0 1 428.56641 634.09766 A 283.46457 283.46457 0 0 1 427.76172 632.93164 A 283.46457 283.46457 0 0 1 426.96289 631.76367 A 283.46457 283.46457 0 0 1 426.16992 630.58984 A 283.46457 283.46457 0 0 1 425.38281 629.41406 A 283.46457 283.46457 0 0 1 424.60352 628.23242 A 283.46457 283.46457 0 0 1 423.82812 627.04688 A 283.46457 283.46457 0 0 1 423.05859 625.85938 A 283.46457 283.46457 0 0 1 422.29492 624.66602 A 283.46457 283.46457 0 0 1 421.53711 623.4707 A 283.46457 283.46457 0 0 1 420.78711 622.27148 A 283.46457 283.46457 0 0 1 420.04102 621.06641 A 283.46457 283.46457 0 0 1 419.30273 619.85938 A 283.46457 283.46457 0 0 1 418.56836 618.64844 A 283.46457 283.46457 0 0 1 417.8418 617.43359 A 283.46457 283.46457 0 0 1 417.12109 616.21484 A 283.46457 283.46457 0 0 1 416.4043 614.99414 A 283.46457 283.46457 0 0 1 415.69531 613.76758 A 283.46457 283.46457 0 0 1 414.99414 612.53906 A 283.46457 283.46457 0 0 1 414.29688 611.30664 A 283.46457 283.46457 0 0 1 413.60547 610.07031 A 283.46457 283.46457 0 0 1 412.92188 608.83203 A 283.46457 283.46457 0 0 1 412.24414 607.58789 A 283.46457 283.46457 0 0 1 411.57227 606.3418 A 283.46457 283.46457 0 0 1 410.90625 605.0918 A 283.46457 283.46457 0 0 1 410.24609 603.83984 A 283.46457 283.46457 0 0 1 409.59375 602.58398 A 283.46457 283.46457 0 0 1 408.94727 601.32422 A 283.46457 283.46457 0 0 1 408.30664 600.0625 A 283.46457 283.46457 0 0 1 407.67188 598.79688 A 283.46457 283.46457 0 0 1 407.04492 597.52734 A 283.46457 283.46457 0 0 1 406.42188 596.25586 A 283.46457 283.46457 0 0 1 405.80664 594.98047 A 283.46457 283.46457 0 0 1 405.19922 593.70117 A 283.46457 283.46457 0 0 1 404.5957 592.41992 A 283.46457 283.46457 0 0 1 404 591.13672 A 283.46457 283.46457 0 0 1 403.41016 589.84961 A 283.46457 283.46457 0 0 1 402.82812 588.55859 A 283.46457 283.46457 0 0 1 402.25 587.26562 A 283.46457 283.46457 0 0 1 401.67969 585.9707 A 283.46457 283.46457 0 0 1 401.11719 584.67188 A 283.46457 283.46457 0 0 1 400.55859 583.37109 A 283.46457 283.46457 0 0 1 400.00781 582.06641 A 283.46457 283.46457 0 0 1 399.46484 580.75977 A 283.46457 283.46457 0 0 1 398.92578 579.44922 A 283.46457 283.46457 0 0 1 398.39453 578.13672 A 283.46457 283.46457 0 0 1 397.87109 576.82227 A 283.46457 283.46457 0 0 1 397.35352 575.50391 A 283.46457 283.46457 0 0 1 396.8418 574.18359 A 283.46457 283.46457 0 0 1 396.33594 572.86133 A 283.46457 283.46457 0 0 1 395.83789 571.53711 A 283.46457 283.46457 0 0 1 395.3457 570.20898 A 283.46457 283.46457 0 0 1 394.86133 568.87891 A 283.46457 283.46457 0 0 1 394.38281 567.54688 A 283.46457 283.46457 0 0 1 393.91211 566.21094 A 283.46457 283.46457 0 0 1 393.44727 564.87305 A 283.46457 283.46457 0 0 1 392.98828 563.53516 A 283.46457 283.46457 0 0 1 392.53711 562.19336 A 283.46457 283.46457 0 0 1 392.0918 560.84766 A 283.46457 283.46457 0 0 1 391.6543 559.50195 A 283.46457 283.46457 0 0 1 391.22266 558.1543 A 283.46457 283.46457 0 0 1 390.79688 556.80273 A 283.46457 283.46457 0 0 1 390.37891 555.45117 A 283.46457 283.46457 0 0 1 389.96875 554.0957 A 283.46457 283.46457 0 0 1 389.56445 552.73828 A 283.46457 283.46457 0 0 1 389.16602 551.38086 A 283.46457 283.46457 0 0 1 388.77539 550.01953 A 283.46457 283.46457 0 0 1 388.39062 548.65625 A 283.46457 283.46457 0 0 1 388.01367 547.29297 A 283.46457 283.46457 0 0 1 387.64258 545.92578 A 283.46457 283.46457 0 0 1 387.2793 544.55859 A 283.46457 283.46457 0 0 1 386.92383 543.1875 A 283.46457 283.46457 0 0 1 386.57227 541.81641 A 283.46457 283.46457 0 0 1 386.23047 540.44141 A 283.46457 283.46457 0 0 1 385.89453 539.06641 A 283.46457 283.46457 0 0 1 385.56445 537.68945 A 283.46457 283.46457 0 0 1 385.24219 536.31055 A 283.46457 283.46457 0 0 1 384.92578 534.93164 A 283.46457 283.46457 0 0 1 384.61719 533.54883 A 283.46457 283.46457 0 0 1 384.31641 532.16602 A 283.46457 283.46457 0 0 1 384.02148 530.78125 A 283.46457 283.46457 0 0 1 383.73438 529.39453 A 283.46457 283.46457 0 0 1 383.45312 528.00781 A 283.46457 283.46457 0 0 1 383.17773 526.61914 A 283.46457 283.46457 0 0 1 382.91211 525.22852 A 283.46457 283.46457 0 0 1 382.65039 523.83594 A 283.46457 283.46457 0 0 1 382.39844 522.44336 A 283.46457 283.46457 0 0 1 382.15234 521.04883 A 283.46457 283.46457 0 0 1 381.91211 519.6543 A 283.46457 283.46457 0 0 1 381.67969 518.25781 A 283.46457 283.46457 0 0 1 381.45508 516.85938 A 283.46457 283.46457 0 0 1 381.23633 515.46094 A 283.46457 283.46457 0 0 1 381.02539 514.06055 A 283.46457 283.46457 0 0 1 380.82031 512.66016 A 283.46457 283.46457 0 0 1 380.62305 511.25781 A 283.46457 283.46457 0 0 1 380.43359 509.85547 A 283.46457 283.46457 0 0 1 380.25 508.45117 A 283.46457 283.46457 0 0 1 380.07227 507.04688 A 283.46457 283.46457 0 0 1 379.9043 505.64062 A 283.46457 283.46457 0 0 1 379.74219 504.23438 A 283.46457 283.46457 0 0 1 379.58594 502.82812 A 283.46457 283.46457 0 0 1 379.4375 501.41992 A 283.46457 283.46457 0 0 1 379.29688 500.01172 A 283.46457 283.46457 0 0 1 379.16211 498.60156 A 283.46457 283.46457 0 0 1 379.03516 497.19141 A 283.46457 283.46457 0 0 1 378.91602 495.78125 A 283.46457 283.46457 0 0 1 378.80273 494.36914 A 283.46457 283.46457 0 0 1 378.69531 492.95703 A 283.46457 283.46457 0 0 1 378.59766 491.54492 A 283.46457 283.46457 0 0 1 378.50586 490.13281 A 283.46457 283.46457 0 0 1 378.41992 488.71875 A 283.46457 283.46457 0 0 1 378.34375 487.30664 A 283.46457 283.46457 0 0 1 378.27148 485.89258 A 283.46457 283.46457 0 0 1 378.20898 484.47852 A 283.46457 283.46457 0 0 1 378.15234 483.0625 A 283.46457 283.46457 0 0 1 378.10156 481.64844 A 283.46457 283.46457 0 0 1 378.06055 480.23242 A 283.46457 283.46457 0 0 1 378.02539 478.81836 A 283.46457 283.46457 0 0 1 377.99609 477.40234 A 283.46457 283.46457 0 0 1 377.97461 475.98633 A 283.46457 283.46457 0 0 1 377.96094 474.57031 A 283.46457 283.46457 0 0 1 377.95312 473.1543 A 283.46457 283.46457 0 0 1 377.95312 472.44141 A 283.46457 283.46457 0 0 1 377.95703 471.02539 A 283.46457 283.46457 0 0 1 377.9668 469.60938 A 283.46457 283.46457 0 0 1 377.98438 468.19336 A 283.46457 283.46457 0 0 1 378.00977 466.77734 A 283.46457 283.46457 0 0 1 378.04102 465.36328 A 283.46457 283.46457 0 0 1 378.08008 463.94727 A 283.46457 283.46457 0 0 1 378.12695 462.5332 A 283.46457 283.46457 0 0 1 378.17969 461.11719 A 283.46457 283.46457 0 0 1 378.23828 459.70312 A 283.46457 283.46457 0 0 1 378.30664 458.28906 A 283.46457 283.46457 0 0 1 378.38086 456.875 A 283.46457 283.46457 0 0 1 378.46094 455.46094 A 283.46457 283.46457 0 0 1 378.55078 454.04883 A 283.46457 283.46457 0 0 1 378.64453 452.63672 A 283.46457 283.46457 0 0 1 378.74805 451.22461 A 283.46457 283.46457 0 0 1 378.85742 449.8125 A 283.46457 283.46457 0 0 1 378.97461 448.40234 A 283.46457 283.46457 0 0 1 379.09766 446.99219 A 283.46457 283.46457 0 0 1 379.22852 445.58203 A 283.46457 283.46457 0 0 1 379.36523 444.17188 A 283.46457 283.46457 0 0 1 379.50977 442.76367 A 283.46457 283.46457 0 0 1 379.66211 441.35742 A 283.46457 283.46457 0 0 1 379.82031 439.94922 A 283.46457 283.46457 0 0 1 379.98633 438.54297 A 283.46457 283.46457 0 0 1 380.16016 437.13867 A 283.46457 283.46457 0 0 1 380.33984 435.73438 A 283.46457 283.46457 0 0 1 380.52539 434.33008 A 283.46457 283.46457 0 0 1 380.7207 432.92773 A 283.46457 283.46457 0 0 1 380.92188 431.52734 A 283.46457 283.46457 0 0 1 381.12891 430.12695 A 283.46457 283.46457 0 0 1 381.34375 428.72656 A 283.46457 283.46457 0 0 1 381.56641 427.32812 A 283.46457 283.46457 0 0 1 381.79492 425.93164 A 283.46457 283.46457 0 0 1 382.0293 424.53516 A 283.46457 283.46457 0 0 1 382.27344 423.14062 A 283.46457 283.46457 0 0 1 382.52344 421.74805 A 283.46457 283.46457 0 0 1 382.7793 420.35547 A 283.46457 283.46457 0 0 1 383.04297 418.96484 A 283.46457 283.46457 0 0 1 383.3125 417.57422 A 283.46457 283.46457 0 0 1 383.5918 416.18555 A 283.46457 283.46457 0 0 1 383.875 414.79883 A 283.46457 283.46457 0 0 1 384.16602 413.41406 A 283.46457 283.46457 0 0 1 384.46484 412.0293 A 283.46457 283.46457 0 0 1 384.76953 410.64648 A 283.46457 283.46457 0 0 1 385.08203 409.26562 A 283.46457 283.46457 0 0 1 385.40039 407.88672 A 283.46457 283.46457 0 0 1 385.72656 406.50977 A 283.46457 283.46457 0 0 1 386.06055 405.13281 A 283.46457 283.46457 0 0 1 386.39844 403.75781 A 283.46457 283.46457 0 0 1 386.74609 402.38672 A 283.46457 283.46457 0 0 1 387.09961 401.01562 A 283.46457 283.46457 0 0 1 387.45898 399.64648 A 283.46457 283.46457 0 0 1 387.82617 398.2793 A 283.46457 283.46457 0 0 1 388.19922 396.91211 A 283.46457 283.46457 0 0 1 388.58008 395.54883 A 283.46457 283.46457 0 0 1 388.96875 394.1875 A 283.46457 283.46457 0 0 1 389.36328 392.82812 A 283.46457 283.46457 0 0 1 389.76367 391.4707 A 283.46457 283.46457 0 0 1 390.17188 390.11523 A 283.46457 283.46457 0 0 1 390.58594 388.75977 A 283.46457 283.46457 0 0 1 391.00781 387.4082 A 283.46457 283.46457 0 0 1 391.43555 386.05859 A 283.46457 283.46457 0 0 1 391.86914 384.71289 A 283.46457 283.46457 0 0 1 392.31055 383.36719 A 283.46457 283.46457 0 0 1 392.75977 382.02344 A 283.46457 283.46457 0 0 1 393.21484 380.68359 A 283.46457 283.46457 0 0 1 393.67578 379.3457 A 283.46457 283.46457 0 0 1 394.14453 378.00977 A 283.46457 283.46457 0 0 1 394.61914 376.67578 A 283.46457 283.46457 0 0 1 395.10156 375.34375 A 283.46457 283.46457 0 0 1 395.58984 374.01562 A 283.46457 283.46457 0 0 1 396.08398 372.68945 A 283.46457 283.46457 0 0 1 396.58594 371.36523 A 283.46457 283.46457 0 0 1 397.09375 370.04297 A 283.46457 283.46457 0 0 1 397.60938 368.72461 A 283.46457 283.46457 0 0 1 398.13086 367.4082 A 283.46457 283.46457 0 0 1 398.6582 366.09375 A 283.46457 283.46457 0 0 1 399.19141 364.7832 A 283.46457 283.46457 0 0 1 399.73242 363.47461 A 283.46457 283.46457 0 0 1 400.28125 362.16992 A 283.46457 283.46457 0 0 1 400.83398 360.86719 A 283.46457 283.46457 0 0 1 401.39453 359.56641 A 283.46457 283.46457 0 0 1 401.96289 358.26953 A 283.46457 283.46457 0 0 1 402.53516 356.97461 A 283.46457 283.46457 0 0 1 403.11523 355.68359 A 283.46457 283.46457 0 0 1 403.70117 354.39453 A 283.46457 283.46457 0 0 1 404.29492 353.10938 A 283.46457 283.46457 0 0 1 404.89453 351.82617 A 283.46457 283.46457 0 0 1 405.5 350.54688 A 283.46457 283.46457 0 0 1 406.11133 349.26953 A 283.46457 283.46457 0 0 1 406.73047 347.99609 A 283.46457 283.46457 0 0 1 407.35547 346.72656 A 283.46457 283.46457 0 0 1 407.98633 345.45898 A 283.46457 283.46457 0 0 1 408.62305 344.19336 A 283.46457 283.46457 0 0 1 409.26758 342.93359 A 283.46457 283.46457 0 0 1 409.91602 341.67578 A 283.46457 283.46457 0 0 1 410.57227 340.41992 A 283.46457 283.46457 0 0 1 411.23633 339.16992 A 283.46457 283.46457 0 0 1 411.9043 337.92188 A 283.46457 283.46457 0 0 1 412.58008 336.67773 A 283.46457 283.46457 0 0 1 413.25977 335.43555 A 283.46457 283.46457 0 0 1 413.94727 334.19922 A 283.46457 283.46457 0 0 1 414.64062 332.96484 A 283.46457 283.46457 0 0 1 415.3418 331.73438 A 283.46457 283.46457 0 0 1 416.04688 330.50586 A 283.46457 283.46457 0 0 1 416.75781 329.2832 A 283.46457 283.46457 0 0 1 417.47656 328.0625 A 283.46457 283.46457 0 0 1 418.20117 326.8457 A 283.46457 283.46457 0 0 1 418.93164 325.63281 A 283.46457 283.46457 0 0 1 419.66797 324.42383 A 283.46457 283.46457 0 0 1 420.41016 323.21875 A 283.46457 283.46457 0 0 1 421.1582 322.01562 A 283.46457 283.46457 0 0 1 421.91211 320.81836 A 283.46457 283.46457 0 0 1 422.67188 319.62305 A 283.46457 283.46457 0 0 1 423.43945 318.43359 A 283.46457 283.46457 0 0 1 424.21094 317.24609 A 283.46457 283.46457 0 0 1 424.98828 316.06445 A 283.46457 283.46457 0 0 1 425.77344 314.88477 A 283.46457 283.46457 0 0 1 426.5625 313.70898 A 283.46457 283.46457 0 0 1 427.35938 312.53906 A 283.46457 283.46457 0 0 1 428.16016 311.37109 A 283.46457 283.46457 0 0 1 428.9668 310.20898 A 283.46457 283.46457 0 0 1 429.78125 309.05078 A 283.46457 283.46457 0 0 1 430.59961 307.89453 A 283.46457 283.46457 0 0 1 431.42383 306.74414 A 283.46457 283.46457 0 0 1 432.25391 305.59766 A 283.46457 283.46457 0 0 1 433.0918 304.45508 A 283.46457 283.46457 0 0 1 433.93359 303.31641 A 283.46457 283.46457 0 0 1 434.78125 302.18359 A 283.46457 283.46457 0 0 1 435.63281 301.05273 A 283.46457 283.46457 0 0 1 436.49219 299.92773 A 283.46457 283.46457 0 0 1 437.35742 298.80664 A 283.46457 283.46457 0 0 1 438.22656 297.68945 A 283.46457 283.46457 0 0 1 439.10156 296.57617 A 283.46457 283.46457 0 0 1 439.98438 295.46875 A 283.46457 283.46457 0 0 1 440.86914 294.36523 A 283.46457 283.46457 0 0 1 441.76172 293.26562 A 283.46457 283.46457 0 0 1 442.66016 292.16992 A 283.46457 283.46457 0 0 1 443.5625 291.08008 A 283.46457 283.46457 0 0 1 444.4707 289.99414 A 283.46457 283.46457 0 0 1 445.38477 288.91406 A 283.46457 283.46457 0 0 1 446.30469 287.83594 A 283.46457 283.46457 0 0 1 447.22852 286.76562 A 283.46457 283.46457 0 0 1 448.16016 285.69727 A 283.46457 283.46457 0 0 1 449.0957 284.63477 A 283.46457 283.46457 0 0 1 450.03516 283.57617 A 283.46457 283.46457 0 0 1 450.98047 282.52344 A 283.46457 283.46457 0 0 1 451.93164 281.47461 A 283.46457 283.46457 0 0 1 452.88867 280.42969 A 283.46457 283.46457 0 0 1 453.84961 279.39062 A 283.46457 283.46457 0 0 1 454.81641 278.35742 A 283.46457 283.46457 0 0 1 455.78906 277.32812 A 283.46457 283.46457 0 0 1 456.76562 276.30273 A 283.46457 283.46457 0 0 1 457.74805 275.2832 A 283.46457 283.46457 0 0 1 458.73633 274.26758 A 283.46457 283.46457 0 0 1 459.72852 273.25781 A 283.46457 283.46457 0 0 1 460.72461 272.25391 A 283.46457 283.46457 0 0 1 461.72852 271.25391 A 283.46457 283.46457 0 0 1 462.73438 270.25977 A 283.46457 283.46457 0 0 1 463.74805 269.26953 A 283.46457 283.46457 0 0 1 464.76367 268.28516 A 283.46457 283.46457 0 0 1 465.78711 267.30469 A 283.46457 283.46457 0 0 1 466.81445 266.33008 A 283.46457 283.46457 0 0 1 467.8457 265.36133 A 283.46457 283.46457 0 0 1 468.88281 264.39648 A 283.46457 283.46457 0 0 1 469.92383 263.4375 A 283.46457 283.46457 0 0 1 470.9707 262.48438 A 283.46457 283.46457 0 0 1 472.02148 261.53516 A 283.46457 283.46457 0 0 1 473.07617 260.5918 A 283.46457 283.46457 0 0 1 474.13672 259.6543 A 283.46457 283.46457 0 0 1 475.20117 258.7207 A 283.46457 283.46457 0 0 1 476.27148 257.79492 A 283.46457 283.46457 0 0 1 477.3457 256.87109 A 283.46457 283.46457 0 0 1 478.42578 255.95508 A 283.46457 283.46457 0 0 1 479.50781 255.04492 A 283.46457 283.46457 0 0 1 480.5957 254.13867 A 283.46457 283.46457 0 0 1 481.68945 253.23828 A 283.46457 283.46457 0 0 1 482.78711 252.34375 A 283.46457 283.46457 0 0 1 483.88867 251.45312 A 283.46457 283.46457 0 0 1 484.99414 250.57031 A 283.46457 283.46457 0 0 1 486.10352 249.69141 A 283.46457 283.46457 0 0 1 487.21875 248.81836 A 283.46457 283.46457 0 0 1 488.33789 247.95117 A 283.46457 283.46457 0 0 1 489.46094 247.08984 A 283.46457 283.46457 0 0 1 490.58789 246.23438 A 283.46457 283.46457 0 0 1 491.7207 245.38281 A 283.46457 283.46457 0 0 1 492.85742 244.53906 A 283.46457 283.46457 0 0 1 493.99805 243.69922 A 283.46457 283.46457 0 0 1 495.14258 242.86523 A 283.46457 283.46457 0 0 1 496.29102 242.03906 A 283.46457 283.46457 0 0 1 497.44336 241.2168 A 283.46457 283.46457 0 0 1 498.59961 240.40039 A 283.46457 283.46457 0 0 1 499.76172 239.58984 A 283.46457 283.46457 0 0 1 500.92578 238.78516 A 283.46457 283.46457 0 0 1 502.0957 237.98633 A 283.46457 283.46457 0 0 1 503.26758 237.19336 A 283.46457 283.46457 0 0 1 504.44531 236.4082 A 283.46457 283.46457 0 0 1 505.625 235.62695 A 283.46457 283.46457 0 0 1 506.81055 234.85156 A 283.46457 283.46457 0 0 1 508 234.08203 A 283.46457 283.46457 0 0 1 509.19141 233.31836 A 283.46457 283.46457 0 0 1 510.38672 232.56055 A 283.46457 283.46457 0 0 1 511.58789 231.81055 A 283.46457 283.46457 0 0 1 512.79102 231.06445 A 283.46457 283.46457 0 0 1 513.99805 230.32617 A 283.46457 283.46457 0 0 1 515.20898 229.5918 A 283.46457 283.46457 0 0 1 516.42383 228.86523 A 283.46457 283.46457 0 0 1 517.64258 228.14453 A 283.46457 283.46457 0 0 1 518.86523 227.42969 A 283.46457 283.46457 0 0 1 520.08984 226.7207 A 283.46457 283.46457 0 0 1 521.31836 226.01758 A 283.46457 283.46457 0 0 1 522.55273 225.32031 A 283.46457 283.46457 0 0 1 523.78711 224.63086 A 283.46457 283.46457 0 0 1 525.02734 223.94531 A 283.46457 283.46457 0 0 1 526.26953 223.26758 A 283.46457 283.46457 0 0 1 527.51562 222.5957 A 283.46457 283.46457 0 0 1 528.76562 221.92969 A 283.46457 283.46457 0 0 1 530.01758 221.27148 A 283.46457 283.46457 0 0 1 531.27539 220.61719 A 283.46457 283.46457 0 0 1 532.5332 219.9707 A 283.46457 283.46457 0 0 1 533.79688 219.33008 A 283.46457 283.46457 0 0 1 535.0625 218.69531 A 283.46457 283.46457 0 0 1 536.33203 218.06836 A 283.46457 283.46457 0 0 1 537.60352 217.44727 A 283.46457 283.46457 0 0 1 538.87891 216.83203 A 283.46457 283.46457 0 0 1 540.15625 216.22266 A 283.46457 283.46457 0 0 1 541.4375 215.61914 A 283.46457 283.46457 0 0 1 542.72266 215.02344 A 283.46457 283.46457 0 0 1 544.00977 214.43359 A 283.46457 283.46457 0 0 1 545.29883 213.85156 A 283.46457 283.46457 0 0 1 546.5918 213.27344 A 283.46457 283.46457 0 0 1 547.88867 212.70312 A 283.46457 283.46457 0 0 1 549.1875 212.14062 A 283.46457 283.46457 0 0 1 550.48828 211.58203 A 283.46457 283.46457 0 0 1 551.79297 211.03125 A 283.46457 283.46457 0 0 1 553.09961 210.48828 A 283.46457 283.46457 0 0 1 554.4082 209.95117 A 283.46457 283.46457 0 0 1 555.7207 209.41992 A 283.46457 283.46457 0 0 1 557.03711 208.89453 A 283.46457 283.46457 0 0 1 558.35352 208.37695 A 283.46457 283.46457 0 0 1 559.67383 207.86523 A 283.46457 283.46457 0 0 1 560.99609 207.35938 A 283.46457 283.46457 0 0 1 562.32227 206.86133 A 283.46457 283.46457 0 0 1 563.65039 206.37109 A 283.46457 283.46457 0 0 1 564.98047 205.88477 A 283.46457 283.46457 0 0 1 566.3125 205.40625 A 283.46457 283.46457 0 0 1 567.64648 204.93555 A 283.46457 283.46457 0 0 1 568.98438 204.4707 A 283.46457 283.46457 0 0 1 570.32422 204.01172 A 283.46457 283.46457 0 0 1 571.66602 203.56055 A 283.46457 283.46457 0 0 1 573.00977 203.11523 A 283.46457 283.46457 0 0 1 574.35547 202.67773 A 283.46457 283.46457 0 0 1 575.70508 202.24609 A 283.46457 283.46457 0 0 1 577.05469 201.82031 A 283.46457 283.46457 0 0 1 578.4082 201.40234 A 283.46457 283.46457 0 0 1 579.76172 200.99219 A 283.46457 283.46457 0 0 1 581.11914 200.58789 A 283.46457 283.46457 0 0 1 582.47852 200.18945 A 283.46457 283.46457 0 0 1 583.83789 199.79883 A 283.46457 283.46457 0 0 1 585.20117 199.41406 A 283.46457 283.46457 0 0 1 586.56641 199.03711 A 283.46457 283.46457 0 0 1 587.93164 198.66797 A 283.46457 283.46457 0 0 1 589.30078 198.30273 A 283.46457 283.46457 0 0 1 590.66992 197.94727 A 283.46457 283.46457 0 0 1 592.04297 197.59766 A 283.46457 283.46457 0 0 1 593.41602 197.25391 A 283.46457 283.46457 0 0 1 594.79102 196.91797 A 283.46457 283.46457 0 0 1 596.16797 196.58789 A 283.46457 283.46457 0 0 1 597.54688 196.26562 A 283.46457 283.46457 0 0 1 598.92773 195.95117 A 283.46457 283.46457 0 0 1 600.30859 195.64062 A 283.46457 283.46457 0 0 1 601.69141 195.33984 A 283.46457 283.46457 0 0 1 603.07617 195.04492 A 283.46457 283.46457 0 0 1 604.46289 194.75781 A 283.46457 283.46457 0 0 1 605.84961 194.47656 A 283.46457 283.46457 0 0 1 607.24023 194.20117 A 283.46457 283.46457 0 0 1 608.62891 193.93555 A 283.46457 283.46457 0 0 1 610.02148 193.67383 A 283.46457 283.46457 0 0 1 611.41406 193.42188 A 283.46457 283.46457 0 0 1 612.80859 193.17578 A 283.46457 283.46457 0 0 1 614.20312 192.93555 A 283.46457 283.46457 0 0 1 615.59961 192.70312 A 283.46457 283.46457 0 0 1 616.99805 192.47852 A 283.46457 283.46457 0 0 1 618.39648 192.25977 A 283.46457 283.46457 0 0 1 619.79688 192.04883 A 283.46457 283.46457 0 0 1 621.19727 191.84375 A 283.46457 283.46457 0 0 1 622.59961 191.64648 A 283.46457 283.46457 0 0 1 624.00195 191.45703 A 283.46457 283.46457 0 0 1 625.40625 191.27344 A 283.46457 283.46457 0 0 1 626.81055 191.09766 A 283.46457 283.46457 0 0 1 628.2168 190.92773 A 283.46457 283.46457 0 0 1 629.62305 190.76562 A 283.46457 283.46457 0 0 1 631.03125 190.60938 A 283.46457 283.46457 0 0 1 632.43945 190.46094 A 283.46457 283.46457 0 0 1 633.84766 190.32031 A 283.46457 283.46457 0 0 1 635.25586 190.18555 A 283.46457 283.46457 0 0 1 636.66602 190.05859 A 283.46457 283.46457 0 0 1 638.07812 189.93945 A 283.46457 283.46457 0 0 1 639.48828 189.82617 A 283.46457 283.46457 0 0 1 640.90039 189.7207 A 283.46457 283.46457 0 0 1 642.3125 189.62109 A 283.46457 283.46457 0 0 1 643.72461 189.5293 A 283.46457 283.46457 0 0 1 645.13867 189.44336 A 283.46457 283.46457 0 0 1 646.55273 189.36719 A 283.46457 283.46457 0 0 1 647.9668 189.29492 A 283.46457 283.46457 0 0 1 649.38086 189.23242 A 283.46457 283.46457 0 0 1 650.79492 189.17578 A 283.46457 283.46457 0 0 1 652.21094 189.125 A 283.46457 283.46457 0 0 1 653.625 189.08398 A 283.46457 283.46457 0 0 1 655.04102 189.04883 A 283.46457 283.46457 0 0 1 656.45703 189.01953 A 283.46457 283.46457 0 0 1 657.87109 188.99805 A 283.46457 283.46457 0 0 1 659.28711 188.98438 A 283.46457 283.46457 0 0 1 660.70312 188.97656 z "
       transform="scale(0.26458333)" />
    <path
       style="fill:#ffffff;stroke:#ffffff;stroke-width:25.0249px;stroke-linecap:butt;stroke-linejoin:miter;stroke-opacity:1"
       d="M 165.01019,117.50716 314.98963,317.4927"
       id="path63"
       sodipodi:nodetypes="cc"
       clip-path="url(#clipPath20)"
       inkscape:path-effect="#path-effect24"
       inkscape:original-d="M 165.01019,117.50716 314.98963,317.4927" />
  </g>
</svg>
