<?xml version="1.0" encoding="UTF-8" standalone="no"?>
<svg
   xmlns:dc="http://purl.org/dc/elements/1.1/"
   xmlns:cc="http://creativecommons.org/ns#"
   xmlns:rdf="http://www.w3.org/1999/02/22-rdf-syntax-ns#"
   xmlns:svg="http://www.w3.org/2000/svg"
   xmlns="http://www.w3.org/2000/svg"
   xmlns:sodipodi="http://sodipodi.sourceforge.net/DTD/sodipodi-0.dtd"
   xmlns:inkscape="http://www.inkscape.org/namespaces/inkscape"
   version="1.0"
   width="1076.000000pt"
   height="229.000000pt"
   viewBox="0 0 1076.000000 229.000000"
   preserveAspectRatio="xMidYMid meet"
   id="svg24"
   sodipodi:docname="chomsky.regular.svg"
   inkscape:version="1.0.1 (1.0.1+r73)">
  <defs
     id="defs28" />
  <sodipodi:namedview
     pagecolor="#ffffff"
     bordercolor="#666666"
     borderopacity="1"
     objecttolerance="10"
     gridtolerance="10"
     guidetolerance="10"
     inkscape:pageopacity="0"
     inkscape:pageshadow="2"
     inkscape:window-width="1440"
     inkscape:window-height="876"
     id="namedview26"
     showgrid="false"
     inkscape:zoom="1.085935"
     inkscape:cx="1397.8196"
     inkscape:cy="152.66667"
     inkscape:window-x="1360"
     inkscape:window-y="0"
     inkscape:window-maximized="1"
     inkscape:current-layer="g22" />
  <metadata
     id="metadata2">
Created by potrace 1.16, written by Peter Selinger 2001-2019
<rdf:RDF>
  <cc:Work
     rdf:about="">
    <dc:format>image/svg+xml</dc:format>
    <dc:type
       rdf:resource="http://purl.org/dc/dcmitype/StillImage" />
  </cc:Work>
</rdf:RDF>
</metadata>
  <g
     transform="translate(0.000000,229.000000) scale(0.100000,-0.100000)"
     fill="#000000"
     stroke="none"
     id="g22">
    <path
       d="M1017 2083 l-237 -208 0 -642 0 -642 -23 -27 -24 -27 -149 17 c-219 26 -214 23 -110 80 49 27 106 65 128 84 76 69 72 38 78 612 l5 515 31 66 c43 91 84 132 212 214 96 61 111 74 117 104 3 18 4 36 0 39 -3 3 -25 -4 -48 -15 -59 -28 -152 -46 -201 -39 -23 4 -93 18 -156 32 -155 35 -248 31 -343 -14 -101 -47 -215 -169 -242 -259 -6 -21 -3 -23 27 -23 26 1 37 7 53 33 25 39 96 77 147 77 21 0 82 -14 135 -32 54 -17 129 -34 166 -37 l68 -6 -117 -105 c-150 -134 -174 -171 -174 -262 0 -75 10 -66 -98 -87 -109 -22 -171 -65 -208 -146 -27 -57 -32 -164 -10 -225 10 -29 18 -36 44 -38 31 -3 32 -2 32 37 0 31 7 49 29 73 29 32 32 33 122 37 l92 3 -6 -243 c-6 -256 -15 -324 -58 -412 -19 -39 -27 -46 -61 -51 -137 -22 -238 -141 -238 -281 0 -135 120 -265 261 -282 l49 -6 0 36 c0 31 -5 38 -34 52 -66 31 -90 106 -48 147 19 19 36 23 149 28 117 5 132 8 176 33 98 58 399 379 535 571 l42 59 0 174 0 173 107 0 106 0 131 136 c72 75 133 141 134 145 2 5 -105 9 -237 9 l-241 0 0 211 0 211 33 -22 c45 -30 201 -104 266 -125 l53 -17 144 143 c79 79 144 149 144 154 0 12 -53 55 -67 55 -4 0 -23 -15 -43 -34 l-35 -34 -92 38 c-84 34 -183 86 -254 133 l-26 17 -236 -207z"
       id="path4"
       style="fill:#ffffff" />
    <path
       d="M3944 2107 c-218 -154 -227 -167 -149 -205 28 -13 49 -32 55 -48 6 -15 10 -245 10 -584 l0 -558 -72 -45 c-71 -44 -73 -45 -79 -24 -7 27 -19 25 -74 -13 l-42 -29 -56 57 -57 58 0 296 0 296 65 51 c36 28 65 55 65 59 0 5 -11 19 -25 32 l-25 24 -28 -22 c-74 -59 -52 -65 -241 58 -95 60 -176 110 -181 110 -26 0 -329 -169 -362 -202 -104 -103 -64 -254 91 -341 l43 -25 -58 -37 c-90 -58 -168 -143 -194 -212 -66 -175 56 -366 264 -413 l46 -10 126 91 126 92 92 -92 91 -91 155 106 c161 111 180 122 180 108 0 -5 7 -17 15 -27 13 -18 15 -18 52 7 21 14 43 26 50 26 6 0 66 -47 134 -105 67 -57 127 -101 133 -98 40 24 296 207 296 212 -1 3 -10 17 -21 30 l-20 24 -22 -20 c-42 -38 -47 -37 -93 8 l-44 43 0 773 0 773 -28 0 c-20 0 -83 -38 -218 -133z m-911 -762 l147 -90 0 -107 0 -107 -69 19 c-212 59 -323 132 -338 223 -3 21 1 45 10 64 17 32 84 96 96 91 4 -2 73 -43 154 -93z m46 -355 l101 -31 -2 -177 -3 -177 -24 -3 c-110 -16 -226 112 -238 261 -7 86 21 175 52 163 7 -2 58 -18 114 -36z"
       id="path6"
       style="fill:#ffffff" />
    <path
       d="M5809 2207 c-133 -50 -209 -163 -209 -308 0 -49 3 -60 21 -69 25 -14 49 -6 49 16 0 29 39 81 69 94 33 13 58 5 104 -38 l27 -26 0 -152 c0 -165 0 -164 -59 -164 -43 0 -127 -48 -171 -97 -112 -127 -79 -313 68 -387 18 -9 37 -14 42 -11 14 9 12 37 -5 59 -22 29 -19 44 14 77 23 23 39 29 70 29 l41 0 0 -189 c0 -187 0 -189 -22 -195 -13 -3 -35 -6 -50 -6 -87 0 -217 -90 -266 -184 -23 -44 -27 -63 -27 -136 0 -135 52 -222 167 -280 50 -24 73 -30 129 -30 60 0 68 2 74 21 8 25 11 22 -44 38 -105 30 -143 131 -75 195 62 57 130 42 272 -59 10 -8 23 0 50 31 20 22 91 100 156 173 l119 132 -22 22 -22 22 -38 -44 -37 -44 -62 46 c-60 44 -132 77 -199 92 l-33 7 0 466 0 467 41 -70 c22 -38 205 -348 406 -688 l366 -617 54 0 53 0 0 704 0 703 45 6 c139 19 255 145 255 276 0 123 -47 175 -84 92 -44 -101 -172 -109 -274 -17 -67 61 -70 59 -242 -140 l-153 -176 22 -21 23 -22 46 51 47 52 32 -27 c36 -30 143 -71 186 -71 l27 0 -1 -322 c-1 -178 -4 -349 -8 -381 l-6 -57 -303 505 c-167 278 -321 527 -342 554 -59 74 -116 104 -209 108 -48 2 -90 -2 -112 -10z"
       id="path8"
       style="fill:#ffffff" />
    <path
       d="m 2015,2069 c -55,-49 -106,-96 -114,-104 -12,-12 0,-30 88,-129 56,-64 107,-116 112,-116 14,0 229,190 229,203 0,11 -199,237 -209,236 -3,0 -51,-41 -106,-90 z"
       id="path10"
       style="fill:#ffffff;stroke-width:1" />
    <path
       d="M8282 1874 c-71 -19 -106 -38 -160 -87 -85 -78 -113 -185 -72 -275 10 -23 51 -76 90 -117 39 -41 78 -91 86 -110 11 -27 14 -96 14 -339 l0 -304 -50 -38 c-27 -21 -50 -43 -50 -49 1 -12 35 -55 45 -55 3 0 22 12 40 26 21 16 39 23 47 18 7 -5 65 -46 128 -92 63 -46 120 -86 126 -89 7 -2 72 30 147 71 74 42 142 78 150 82 10 3 57 -25 127 -75 61 -45 114 -81 117 -81 4 0 132 66 285 147 l278 147 0 378 0 378 70 57 c39 32 70 61 70 65 0 4 -11 19 -24 34 l-23 28 -51 -43 -51 -43 -75 66 -75 67 -130 -108 -131 -108 55 -53 55 -54 0 -357 0 -358 -25 -13 c-23 -12 -31 -9 -115 46 l-90 59 0 322 0 321 47 41 c26 22 45 42 43 44 -3 2 -60 52 -127 111 l-123 107 -130 -108 c-71 -59 -130 -110 -129 -113 0 -3 25 -25 54 -50 l54 -45 -2 -364 c-2 -326 -4 -365 -18 -374 -13 -8 -37 2 -110 49 l-94 60 -5 339 c-5 374 -6 375 -71 449 -18 21 -58 55 -88 76 -77 52 -111 91 -118 133 -8 50 12 92 56 119 20 12 37 22 39 24 2 1 0 13 -4 28 -7 30 -10 30 -82 10z"
       id="path12"
       style="fill:#ffffff" />
    <path
       d="M1918 1522 c-87 -58 -158 -109 -158 -112 0 -3 9 -16 19 -29 l18 -24 47 28 c26 15 48 26 50 24 1 -2 19 -25 39 -50 l37 -46 0 -310 0 -311 -75 -51 c-41 -29 -75 -56 -75 -60 0 -5 8 -19 18 -32 l19 -22 35 26 c19 15 38 27 42 27 4 0 57 -44 117 -97 61 -54 115 -97 121 -95 6 2 87 55 179 119 163 113 168 117 151 136 -35 39 -49 40 -96 7 -25 -16 -49 -30 -53 -30 -5 0 -26 17 -46 38 l-37 38 0 363 0 363 -87 104 c-48 57 -92 104 -98 103 -5 0 -81 -48 -167 -107z"
       id="path14"
       style="fill:#ffffff" />
    <path
       d="M7423 1482 l-283 -147 0 -315 0 -315 -56 -50 -57 -51 25 -29 25 -29 53 42 53 42 58 -43 c32 -23 113 -82 179 -131 109 -80 122 -87 138 -74 9 8 122 99 250 203 127 103 232 190 232 192 0 9 -34 63 -40 63 -3 0 -54 -39 -115 -86 -60 -48 -120 -93 -132 -101 -21 -14 -30 -9 -163 82 l-140 96 0 47 1 47 260 160 c183 113 259 164 256 175 -8 31 -237 370 -249 370 -7 -1 -140 -67 -295 -148z m172 -193 c53 -77 95 -142 93 -143 -2 -1 -55 -35 -118 -74 l-115 -73 -3 207 c-2 210 0 223 34 224 6 0 55 -63 109 -141z"
       id="path16"
       style="fill:#ffffff" />
    <path
       d="M10132 1489 l-242 -141 0 -177 1 -176 70 -55 c39 -30 77 -61 86 -67 14 -11 6 -23 -66 -98 -94 -98 -130 -165 -138 -256 -7 -70 14 -133 60 -186 33 -37 82 -67 97 -58 18 11 22 66 6 84 -40 44 2 110 75 118 55 6 115 -21 163 -73 l31 -34 237 142 237 143 1 190 0 190 -95 69 c-52 38 -95 71 -95 73 0 3 19 26 41 51 23 26 59 82 80 126 33 67 45 108 75 254 4 20 1 22 -36 22 -36 0 -41 -3 -54 -34 -36 -86 -154 -87 -239 -2 -20 20 -40 36 -44 36 -5 0 -117 -63 -251 -141z m244 -185 c40 -11 75 -15 116 -10 56 5 58 5 46 -12 -7 -10 -53 -54 -103 -97 -49 -43 -101 -88 -113 -99 l-24 -21 -44 50 -44 50 0 131 0 130 54 -52 c42 -41 68 -57 112 -70z m54 -577 l0 -139 -32 43 c-67 86 -199 132 -303 106 -30 -7 -52 -10 -49 -5 3 5 62 60 132 122 l126 114 63 -51 63 -51 0 -139z"
       id="path18"
       style="fill:#ffffff" />
    <path
       d="M4408 1346 c-98 -151 -178 -277 -178 -281 0 -5 420 -622 463 -679 13 -18 24 -12 200 104 103 67 187 125 187 129 0 3 -12 19 -26 34 l-25 29 -50 -33 c-28 -18 -54 -28 -58 -23 -5 5 -110 161 -235 346 -147 220 -224 342 -220 352 8 20 18 20 34 1 21 -25 118 -55 178 -55 72 0 145 33 191 86 42 47 86 142 99 212 9 51 9 52 -15 52 -15 0 -43 -16 -69 -39 -75 -66 -168 -64 -234 4 -19 19 -41 35 -49 35 -10 0 -87 -109 -193 -274z"
       id="path20"
       style="fill:#ffffff" />
  </g>
</svg>
