<?xml version="1.0" encoding="UTF-8" standalone="no"?>
<svg
   xmlns:dc="http://purl.org/dc/elements/1.1/"
   xmlns:cc="http://creativecommons.org/ns#"
   xmlns:rdf="http://www.w3.org/1999/02/22-rdf-syntax-ns#"
   xmlns:svg="http://www.w3.org/2000/svg"
   xmlns="http://www.w3.org/2000/svg"
   xmlns:sodipodi="http://sodipodi.sourceforge.net/DTD/sodipodi-0.dtd"
   xmlns:inkscape="http://www.inkscape.org/namespaces/inkscape"
   version="1.0"
   width="1206.000000pt"
   height="234.000000pt"
   viewBox="0 0 1206.000000 234.000000"
   preserveAspectRatio="xMidYMid meet"
   id="svg22"
   sodipodi:docname="news.svg"
   inkscape:version="1.0.1 (1.0.1+r73)">
  <metadata
     id="metadata28">
    <rdf:RDF>
      <cc:Work
         rdf:about="">
        <dc:format>image/svg+xml</dc:format>
        <dc:type
           rdf:resource="http://purl.org/dc/dcmitype/StillImage" />
      </cc:Work>
    </rdf:RDF>
  </metadata>
  <defs
     id="defs26" />
  <sodipodi:namedview
     pagecolor="#ffffff"
     bordercolor="#666666"
     borderopacity="1"
     objecttolerance="10"
     gridtolerance="10"
     guidetolerance="10"
     inkscape:pageopacity="0"
     inkscape:pageshadow="2"
     inkscape:window-width="1360"
     inkscape:window-height="704"
     id="namedview24"
     showgrid="false"
     inkscape:zoom="0.71522911"
     inkscape:cx="804"
     inkscape:cy="156"
     inkscape:window-x="0"
     inkscape:window-y="0"
     inkscape:window-maximized="1"
     inkscape:current-layer="svg22" />
  <g
     transform="translate(0.000000,234.000000) scale(0.100000,-0.100000)"
     fill="#000000"
     stroke="none"
     id="g20"
     style="fill:#ffffff">
    <path
       d="M3582 2127 l-231 -202 -1 -628 c0 -651 -1 -671 -41 -704 -11 -9 -48 -7 -164 7 -83 11 -168 20 -190 20 -49 1 -43 7 76 70 105 57 175 119 189 168 6 23 10 213 10 493 0 282 4 477 11 514 26 141 86 218 257 325 94 60 102 68 102 96 l0 31 -52 -25 c-79 -38 -184 -41 -323 -9 -156 36 -193 40 -261 28 -120 -22 -237 -105 -301 -212 -47 -79 -50 -89 -22 -89 15 0 34 13 52 35 62 78 145 87 304 34 75 -25 114 -32 169 -32 l72 1 -36 -31 c-235 -200 -282 -262 -282 -368 l0 -56 -67 -12 c-143 -26 -219 -84 -250 -190 -26 -89 2 -221 46 -221 17 0 21 6 21 34 0 45 38 98 80 113 19 7 65 12 103 12 l67 1 0 -227 c-1 -249 -12 -347 -51 -428 -21 -44 -29 -52 -69 -63 -152 -44 -231 -136 -231 -271 -1 -140 118 -271 256 -283 38 -3 40 -2 43 27 2 26 -3 32 -38 48 -67 31 -93 113 -47 154 19 17 41 21 146 27 68 4 138 13 156 21 83 34 374 335 531 548 l74 100 0 169 0 168 103 0 102 0 133 140 134 140 -236 0 -236 0 0 221 0 220 28 -20 c42 -30 208 -109 269 -128 l54 -17 144 144 145 144 -28 23 c-35 29 -40 29 -79 -9 l-32 -31 -63 23 c-67 24 -205 92 -274 134 l-42 26 -230 -203z"
       id="path2"
       style="fill:#ffffff" />
    <path
       d="M5785 2286 c-202 -78 -370 -190 -537 -357 l-127 -127 -3 -433 -3 -434 -27 -56 c-27 -54 -30 -56 -90 -73 -137 -38 -320 -148 -414 -248 -43 -45 -134 -167 -134 -179 0 -22 55 -6 98 29 94 78 197 121 339 142 144 22 348 -9 510 -78 l72 -31 400 207 401 207 -3 304 -2 304 -85 58 c-47 32 -120 72 -162 90 -43 18 -76 34 -74 36 2 2 66 47 143 101 76 53 141 101 142 105 3 9 -369 455 -379 456 -3 0 -32 -10 -65 -23z m-34 -353 c78 -93 148 -176 156 -185 13 -15 0 -27 -140 -132 -84 -64 -157 -116 -160 -116 -4 0 -7 135 -7 300 0 165 2 300 4 300 3 0 69 -75 147 -167z m-215 -1141 c-3 -2 -42 5 -86 17 -45 13 -122 25 -171 28 l-89 6 90 87 c70 68 97 103 123 156 l32 69 5 405 c5 444 4 434 69 503 l26 28 3 -647 c1 -356 0 -649 -2 -652z m159 648 c38 -17 105 -51 147 -77 l78 -47 -148 -78 c-81 -42 -153 -77 -159 -78 -10 0 -13 37 -13 155 0 117 3 155 13 155 6 0 43 -14 82 -30z m255 -278 l0 -87 -165 -83 c-91 -45 -170 -82 -175 -82 -6 0 -10 35 -10 83 l0 82 173 87 c94 48 173 87 175 87 1 1 2 -38 2 -87z m0 -294 l0 -133 -94 -43 -94 -42 -81 52 c-77 51 -81 54 -78 88 2 35 3 36 172 122 94 48 171 87 173 88 1 0 2 -60 2 -132z"
       id="path4"
       style="fill:#ffffff" />
    <path
       d="M5385 2251 c-78 -31 -174 -32 -318 -3 -133 27 -188 27 -266 3 -114 -36 -223 -127 -277 -233 l-24 -48 27 0 c20 1 34 10 48 32 48 76 138 89 309 44 54 -14 112 -26 129 -26 26 0 12 -12 -96 -81 -191 -121 -217 -155 -217 -273 l0 -65 -56 -11 c-112 -24 -176 -67 -213 -145 -42 -89 -19 -255 35 -255 20 0 24 5 24 33 0 68 55 107 150 107 l60 0 0 -137 c-1 -249 -27 -352 -108 -425 -34 -30 -37 -38 -29 -61 5 -15 13 -27 17 -27 5 0 39 11 77 25 144 54 277 175 325 295 21 53 23 72 28 460 3 281 9 411 17 425 18 31 56 64 238 205 170 132 189 150 183 173 -2 9 -19 6 -63 -12z"
       id="path6"
       style="fill:#ffffff" />
    <path
       d="M263 2251 c-80 -38 -173 -140 -209 -231 -17 -41 -17 -43 1 -56 17 -13 22 -10 48 21 57 70 112 80 250 44 168 -43 262 -13 409 129 88 86 91 90 70 101 -19 10 -28 7 -63 -21 -37 -30 -47 -33 -103 -32 -36 1 -94 12 -141 28 -110 37 -207 43 -262 17z"
       id="path8"
       style="fill:#ffffff" />
    <path
       d="M7018 2257 c-119 -34 -213 -148 -218 -267 -5 -96 -2 -110 24 -110 19 0 27 8 36 34 28 86 101 111 165 55 l35 -31 0 -163 0 -162 -45 -6 c-176 -25 -294 -213 -226 -362 19 -44 85 -109 121 -120 30 -9 43 12 24 39 -37 54 -1 109 79 119 l47 7 0 -200 0 -200 -33 0 c-46 0 -132 -27 -176 -54 -43 -27 -103 -92 -128 -138 -28 -52 -26 -209 5 -265 57 -108 148 -166 261 -167 60 -1 66 1 69 20 3 18 -4 22 -39 28 -28 5 -52 17 -75 40 -29 29 -34 41 -34 82 0 27 6 56 13 64 56 72 155 66 260 -14 l45 -35 119 132 c65 73 133 149 152 170 32 36 33 39 17 55 -16 16 -19 14 -55 -27 l-38 -45 -44 37 c-53 43 -159 95 -211 103 l-38 7 0 476 1 476 30 -50 c16 -27 200 -338 408 -690 l379 -640 46 -3 46 -3 0 705 0 705 61 12 c71 14 154 65 194 119 54 74 69 198 30 257 -22 33 -31 29 -54 -22 -16 -36 -29 -50 -63 -65 -24 -11 -56 -20 -73 -20 -39 0 -123 40 -154 74 -40 43 -69 35 -132 -36 -256 -294 -244 -278 -225 -296 17 -16 20 -14 60 31 47 52 55 55 80 28 22 -24 99 -58 164 -72 l50 -10 7 -125 c11 -185 -4 -659 -20 -642 -7 7 -137 222 -290 478 -294 491 -342 568 -384 613 -61 67 -181 99 -273 74z"
       id="path10"
       style="fill:#ffffff" />
    <path
       d="M834 2072 c-144 -92 -287 -188 -319 -212 -89 -71 -165 -202 -165 -287 0 -15 -7 -24 -23 -27 -151 -31 -204 -62 -250 -144 -24 -43 -29 -65 -29 -115 0 -86 21 -141 55 -145 25 -3 27 0 27 30 0 69 57 108 155 108 l55 0 0 -148 c0 -136 -2 -153 -23 -193 -17 -32 -32 -47 -55 -54 -26 -7 -31 -13 -26 -30 4 -11 8 -22 11 -25 9 -9 162 29 215 54 74 35 141 96 170 154 22 46 23 56 28 412 7 411 5 400 84 486 l46 49 -3 -510 -2 -511 -26 -49 c-28 -56 -91 -109 -147 -125 -20 -6 -89 -15 -152 -20 -160 -13 -209 -30 -272 -97 -88 -92 -92 -273 -8 -375 39 -47 121 -88 177 -88 41 0 43 1 43 30 0 26 -3 30 -29 30 -17 0 -42 11 -60 26 -55 46 -39 114 35 152 11 6 66 16 122 21 156 16 258 61 327 143 60 71 65 93 65 325 l0 211 45 17 c57 22 130 16 179 -14 l36 -23 0 -183 0 -183 -75 -51 c-41 -29 -75 -56 -75 -60 0 -4 5 -12 11 -18 9 -9 20 -6 44 13 17 13 37 24 44 24 7 0 65 -44 129 -98 64 -53 124 -103 134 -110 14 -11 43 7 217 136 196 146 200 150 181 167 -19 17 -21 17 -55 -9 l-35 -27 0 209 0 209 39 18 c51 23 140 17 179 -12 l27 -20 3 -190 2 -191 -69 -47 c-61 -42 -69 -50 -60 -67 10 -18 12 -17 51 11 l40 30 122 -101 c66 -56 129 -108 138 -116 15 -13 35 1 197 133 100 81 181 151 181 155 0 4 -6 13 -14 19 -12 10 -28 3 -82 -33 l-68 -45 -50 43 -51 44 -3 560 -2 561 57 46 c32 26 59 50 60 54 2 3 -5 16 -15 29 l-18 23 -50 -40 -50 -40 -153 136 -152 135 -127 -76 -127 -76 -3 65 -3 65 -34 0 -35 0 0 -88 0 -88 -65 -38 -65 -38 -48 38 c-26 21 -100 83 -165 136 -65 54 -122 98 -125 97 -4 0 -125 -75 -268 -167z m950 -195 l107 -88 -3 -142 -3 -142 -45 -22 c-52 -27 -104 -29 -160 -7 l-40 16 0 250 c0 241 1 249 19 236 10 -7 66 -53 125 -101z m-216 -856 l-3 -320 -67 51 -68 50 0 547 1 546 67 41 67 41 3 -319 c1 -175 1 -462 0 -637z m-572 866 l119 -83 3 -146 3 -146 -37 -23 c-49 -30 -122 -36 -179 -14 l-45 17 0 239 c0 131 4 239 8 239 5 0 62 -37 128 -83z m124 -567 l0 -119 -46 24 c-54 29 -117 32 -171 10 -19 -8 -37 -15 -39 -15 -2 0 -4 45 -4 101 0 92 1 101 18 94 73 -31 141 -30 202 4 19 11 36 20 38 20 1 1 2 -53 2 -119z m770 0 c0 -60 -2 -110 -4 -110 -2 0 -23 9 -47 20 -53 24 -107 25 -156 5 -19 -8 -37 -15 -39 -15 -2 0 -4 45 -4 100 0 55 2 100 4 100 2 0 20 -7 39 -15 49 -20 103 -19 152 4 22 11 43 20 48 20 4 1 7 -48 7 -109z"
       id="path12"
       style="fill:#ffffff" />
    <path
       d="M9465 1916 c-100 -32 -189 -104 -220 -178 -19 -47 -19 -128 -1 -172 8 -19 45 -67 84 -107 112 -120 107 -95 110 -456 l3 -311 -55 -43 -56 -44 24 -24 24 -24 36 28 36 27 115 -83 c63 -46 125 -90 138 -98 23 -14 33 -9 171 67 81 46 153 79 159 76 7 -4 58 -41 115 -81 56 -41 109 -73 117 -71 8 2 134 66 280 143 l264 140 1 377 0 378 70 57 c39 32 70 60 70 64 0 4 -8 17 -19 30 l-18 23 -52 -43 -51 -43 -74 67 -75 66 -125 -103 -126 -103 50 -48 50 -48 0 -368 0 -368 -25 -11 c-22 -10 -35 -5 -120 49 l-95 61 0 323 0 323 47 41 c26 22 45 42 43 43 -3 2 -58 50 -123 107 l-117 102 -126 -103 -125 -103 50 -48 51 -48 0 -369 c0 -449 10 -425 -135 -330 l-94 62 -3 331 c-3 322 -4 334 -26 382 -28 61 -58 93 -139 152 -77 55 -110 94 -119 137 -8 47 20 103 63 124 25 12 33 22 31 37 -4 25 -30 28 -83 11z"
       id="path14"
       style="fill:#ffffff" />
    <path
       d="M11340 1536 l-245 -143 -3 -169 -2 -169 75 -60 c42 -33 84 -66 92 -72 15 -11 8 -22 -58 -90 -121 -125 -150 -180 -150 -285 -1 -72 26 -132 79 -180 50 -46 67 -47 80 -9 8 22 7 32 -5 44 -21 20 -19 74 3 98 54 60 165 42 239 -38 l32 -35 236 144 237 143 0 180 0 181 -100 73 c-55 39 -100 75 -100 78 0 3 20 28 45 55 58 64 108 169 135 278 26 111 26 110 -14 110 -28 0 -36 -5 -46 -31 -18 -42 -54 -63 -110 -63 -52 0 -125 36 -157 78 l-18 25 -245 -143z m148 -128 c52 -43 112 -61 189 -56 37 3 77 9 88 13 34 15 -38 -60 -158 -164 l-110 -96 -48 55 -49 55 0 149 0 149 29 -39 c15 -22 42 -51 59 -66z m88 -439 l64 -51 0 -156 0 -155 -31 46 c-77 116 -224 166 -350 118 l-51 -20 18 21 c33 37 269 248 278 248 4 0 37 -23 72 -51z"
       id="path16"
       style="fill:#ffffff" />
    <path
       d="M8620 1527 l-275 -142 -3 -319 -2 -318 -28 -22 c-15 -11 -40 -33 -57 -48 l-30 -27 22 -22 22 -22 37 29 c20 16 44 34 53 41 13 10 44 -9 191 -118 96 -71 177 -129 180 -129 5 0 451 358 478 384 10 10 11 18 1 39 -7 15 -15 27 -18 27 -3 0 -64 -45 -135 -100 -71 -55 -130 -100 -132 -100 -2 0 -67 43 -144 97 l-141 96 3 55 3 55 252 156 c139 86 253 162 253 169 0 18 -231 362 -244 362 -6 0 -135 -64 -286 -143z m169 -184 c56 -80 100 -147 98 -149 -1 -1 -56 -36 -122 -77 l-120 -76 -3 211 c-2 212 1 238 34 238 7 0 58 -66 113 -147z"
       id="path18"
       style="fill:#ffffff" />
  </g>
</svg>
